<?xml version="1.0" encoding="utf-8"?>
<!-- Generator: Adobe Illustrator 16.0.3, SVG Export Plug-In . SVG Version: 6.00 Build 0)  -->
<!DOCTYPE svg PUBLIC "-//W3C//DTD SVG 1.1//EN" "http://www.w3.org/Graphics/SVG/1.1/DTD/svg11.dtd">
<svg version="1.1" id="Layer_1" xmlns="http://www.w3.org/2000/svg" xmlns:xlink="http://www.w3.org/1999/xlink" x="0px" y="0px"
	 width="150px" height="150px" viewBox="0 0 150 150" enable-background="new 0 0 150 150" xml:space="preserve">
<g>
	<g>
		<path fill="#721950" d="M144.571,65.32c1.087-0.961,1.803-0.91,3.2-2.842c1.518-2.097-0.996-2.76-2.743-1.895
			c-4.406,2.18-3.81,2.675-3.066-0.801c0.443-2.078-0.119-2.837-0.626-3.04c-1.611-0.646-2.219,0.557-3.12,3.145
			c-1.141,3.268-1.933,4.419-1.933,4.419s-7.995,4.973-14.163,9.582c0.22,2.147,0.433,4.318,0.631,6.53
			c0.081,0.874,0.154,1.729,0.227,2.575c5.2-4.924,12.068-12.046,16.537-13.706c0,0,2.519,0.04,4.719,0.04
			c1.272,0,4.842,0,4.767-1.977C148.918,65.191,144.03,65.796,144.571,65.32z"/>
		<path fill="#721950" d="M13.717,52.822c0,0-0.79-1.151-1.931-4.419c-0.904-2.588-1.51-3.791-3.122-3.144
			c-0.505,0.203-1.069,0.962-0.626,3.04c0.743,3.477,1.339,2.981-3.064,0.802c-1.75-0.866-4.263-0.203-2.745,1.895
			c1.398,1.931,2.116,1.88,3.202,2.841c0.538,0.476-4.349-0.131-4.429,2.031c-0.074,1.976,3.496,1.976,4.769,1.976
			c2.199,0,4.717-0.04,4.717-0.04c4.419,2.691,11.849,10.434,17.185,15.055c0.308-3.507,0.721-6.953,1.261-10.313
			C22.654,58.455,13.717,52.822,13.717,52.822z"/>
		<path fill="#004539" d="M26.675,9.006c0,11.365,7.556,19.604,13.03,20.458c2.853-5.152,6.174-9.675,9.958-13.417
			C31.354,11.867,26.675-8.477,26.675,9.006z"/>
		<path fill="#004539" d="M125.426,9.167c0-18.414-0.857-0.964-20.79,6.363c3.15,3.609,5.752,7.992,7.914,13.062
			C120.712,26.798,125.426,17.752,125.426,9.167z"/>
		<path fill="#721950" d="M54.726,138.861c0,13.104-4.997,9.757,9.791,9.757c1.782,0,3.565,0.027,5.347,0.065
			c0.019,0.002,0.038,0.002,0.056,0.002c2.256,0,4.783-1.49,2.675-3.839c-1.356-1.513-5.488-2.086-6.818-2.086
			c-8.901,0-8.919,5.247-8.919-1.179c0-3.594,0.809-7.972,0.809-11.067c0-1.505-0.24-2.719-0.578-3.724
			c-1.778,0.195-3.46,0.378-5.037,0.51C54.087,130.93,54.726,134.868,54.726,138.861z"/>
		<path fill="#721950" d="M92.462,138.861c0,13.104-4.999,9.757,9.791,9.757c1.781,0,3.562,0.027,5.346,0.065
			c0.02,0.002,0.038,0.002,0.056,0.002c2.255,0,4.783-1.49,2.678-3.839c-1.357-1.513-5.488-2.086-6.816-2.086
			c-8.902,0-8.923,5.247-8.923-1.179c0-3.594,0.808-7.972,0.808-11.067c0-0.905-0.101-1.688-0.24-2.412
			c-1.67-0.257-3.461-0.559-5.411-0.861C91.813,130.887,92.462,134.846,92.462,138.861z"/>
		<path fill="#A51E64" d="M122.977,82.994c-0.072-0.847-0.145-1.702-0.226-2.575c-0.198-2.211-0.411-4.382-0.632-6.53
			c-1.838-17.869-4.517-33.434-9.569-45.295c-2.162-5.07-4.764-9.453-7.914-13.062C98.291,8.257,89.705,4.158,77.878,4.158
			c-11.195,0-20.626,4.381-28.214,11.889c-3.784,3.742-7.107,8.266-9.958,13.417c-5.144,9.291-8.762,20.609-10.772,33.083
			c-0.54,3.358-0.955,6.805-1.261,10.313c-0.399,4.55-0.612,9.205-0.612,13.937c0,31.741,3.527,39.64,19.02,40.654
			c1.827,0.12,3.818,0.03,5.97-0.151c1.579-0.132,3.261-0.313,5.037-0.51c4.815-0.533,10.374-1.144,16.928-1.008
			c6.426,0.131,11.472,0.796,15.732,1.459c1.952,0.303,3.742,0.604,5.412,0.861c3.594,0.551,6.675,0.875,9.764,0.463
			C123.014,126.16,125.566,113.813,122.977,82.994z"/>
	</g>
	<g>
		<path fill="#012430" d="M108.516,54.412c-1.931,4.208-6.96,11.586-9.271,11.326c-0.037-0.004-5.31-9.088-6.843-7.846
			c-1.995,1.613-3.359,4.2-7.961,8.562c-4.209-10.238-7.348-8.101-10.401-4.653c-2.287,2.584-5.1,5.766-5.1,5.766
			c-2.735,0-4.922-11.631-7.191-9.153c-2.932,3.204-9.701,8.691-9.701,8.691c-4.405-1.418-8.223-8.423-8.794-11.335
			c-6.601,2.131-7.814,7.547-7.814,10.684c0,7.108-0.16,16.591,5.587,18.972c2.745,1.139,5.663,1.708,8.646,1.898
			c-0.083-0.401-0.129-0.825-0.129-1.255c0-2.325,3.447-10.451,7.469-11.993c0,0,4.748,6.039,7.215,9.243
			c1.908,2.478,4.693-9.705,6.995-9.705c0,0,2.367,3.182,4.29,5.766c2.568,3.449,2.104,4.082,8.752-4.653
			c3.871,4.364,5.018,6.95,6.699,8.565c1.291,1.241,5.725-7.843,5.756-7.849c1.84-0.244,5.735,6.362,7.523,10.636
			c4.629-0.406,8.998-3.584,8.998-10.674C113.243,66.79,116.689,58.171,108.516,54.412z"/>
		<path fill="#FFEFC9" d="M52.049,67.105c0,0,6.768-5.487,9.701-8.691c2.269-2.477,4.456,9.153,7.191,9.153
			c0,0,2.814-3.183,5.1-5.766c3.052-3.448,6.192-5.585,10.401,4.653c4.602-4.362,5.966-6.949,7.961-8.562
			c1.533-1.242,6.805,7.842,6.843,7.846c2.312,0.259,7.34-7.12,9.271-11.326c-0.799-0.369-1.703-0.692-2.742-0.962
			c-8.193-0.724-5.551,2.578-30.326,2.578c-5.377,0-13.949,0.017-21.409-0.88c-4.638-0.558-8.141-0.229-10.784,0.624
			C43.826,58.682,47.644,65.687,52.049,67.105z"/>
		<path fill="#FFEFC9" d="M96.723,75.445c-0.033,0.005-4.467,9.089-5.758,7.848c-1.68-1.613-2.826-4.199-6.699-8.564
			c-6.648,8.735-6.184,8.101-8.75,4.654c-1.923-2.584-4.291-5.767-4.291-5.767c-2.302,0-5.088,12.183-6.995,9.706
			c-2.468-3.206-7.215-9.244-7.215-9.244c-4.022,1.542-7.469,9.667-7.469,11.994c0,0.43,0.045,0.852,0.129,1.254
			c0.756,0.048,1.517,0.075,2.279,0.075c11.162,0,17.93-4.125,25.666-3.937c12.147,0.294,20.627,2.667,25.591,2.667
			c0.348,0,0.692-0.018,1.036-0.049C102.456,81.807,98.562,75.201,96.723,75.445z"/>
	</g>
	<ellipse fill="#FFEFC9" cx="77.895" cy="40.036" rx="7.84" ry="7.732"/>
	<ellipse cx="77.895" cy="39.81" rx="3.722" ry="3.679"/>
	<path fill="#891F5B" d="M85.393,37.773c-0.981-3.165-3.967-5.468-7.5-5.468c-3.584,0-6.608,2.373-7.541,5.614L85.393,37.773z"/>
	<path fill="#FFEFC9" d="M108.146,32.38c2.273,3.702,1.073,8.341-2.682,10.362c-3.752,2.021-8.637,0.658-10.91-3.044
		c-2.272-3.702-1.074-8.342,2.682-10.362C100.988,27.315,105.875,28.678,108.146,32.38z"/>
	<ellipse cx="101.06" cy="35.112" rx="3.722" ry="3.678"/>
	<path fill="#891F5B" d="M106.646,30.578c-2.532-2.287-6.347-2.889-9.409-1.242c-3.105,1.674-4.465,5.143-3.551,8.388
		L106.646,30.578z"/>
	<path fill="#FFEFC9" d="M60.218,39.464c-2.128,3.778-6.958,5.305-10.786,3.413c-3.829-1.892-5.208-6.487-3.082-10.264
		c2.127-3.777,6.956-5.304,10.786-3.413C60.965,31.093,62.345,35.688,60.218,39.464z"/>
	<ellipse cx="53.806" cy="35.112" rx="3.723" ry="3.678"/>
	<path fill="#891F5B" d="M61.043,37.314c0.709-3.229-0.783-6.571-3.906-8.114c-3.17-1.566-7.027-0.788-9.468,1.67L61.043,37.314z"/>
</g>
</svg>
