<?xml version="1.0" encoding="utf-8"?>
<!-- Generator: Adobe Illustrator 16.0.3, SVG Export Plug-In . SVG Version: 6.00 Build 0)  -->
<!DOCTYPE svg PUBLIC "-//W3C//DTD SVG 1.1//EN" "http://www.w3.org/Graphics/SVG/1.1/DTD/svg11.dtd">
<svg version="1.1" id="Layer_1" xmlns="http://www.w3.org/2000/svg" xmlns:xlink="http://www.w3.org/1999/xlink" x="0px" y="0px"
	 width="150px" height="150px" viewBox="0 0 150 150" enable-background="new 0 0 150 150" xml:space="preserve">
<g>
	<g>
		<path fill="#721950" d="M145.511,65.189c1.102-0.974,1.828-0.922,3.244-2.88c1.538-2.125-1.009-2.797-2.781-1.92
			c-4.465,2.209-3.86,2.711-3.107-0.812c0.45-2.106-0.121-2.875-0.634-3.081c-1.634-0.655-2.249,0.564-3.163,3.187
			c-1.156,3.312-1.958,4.479-1.958,4.479s-8.103,5.04-14.354,9.712c0.223,2.176,0.438,4.376,0.639,6.617
			c0.081,0.887,0.155,1.752,0.229,2.61c5.271-4.99,12.232-12.208,16.761-13.89c0,0,2.552,0.041,4.782,0.041
			c1.29,0,4.907,0,4.831-2.004C149.917,65.058,144.964,65.672,145.511,65.189z"/>
		<path fill="#721950" d="M12.889,52.523c0,0-0.8-1.167-1.957-4.479c-0.916-2.623-1.53-3.842-3.164-3.187
			c-0.512,0.206-1.083,0.975-0.634,3.081c0.753,3.524,1.357,3.021-3.106,0.813c-1.773-0.878-4.32-0.206-2.782,1.92
			c1.417,1.958,2.144,1.906,3.245,2.88c0.545,0.482-4.408-0.133-4.489,2.058c-0.075,2.003,3.543,2.003,4.833,2.003
			c2.229,0,4.781-0.041,4.781-0.041c4.479,2.728,12.009,10.575,17.417,15.258c0.312-3.554,0.731-7.047,1.279-10.451
			C21.947,58.231,12.889,52.523,12.889,52.523z"/>
		<path fill="#004539" d="M26.022,8.114c0,11.519,7.658,19.869,13.206,20.735c2.891-5.221,6.258-9.806,10.093-13.599
			C30.764,11.014,26.022-9.605,26.022,8.114z"/>
		<path fill="#004539" d="M126.107,8.278c0-18.663-0.869-0.977-21.071,6.449c3.192,3.658,5.829,8.1,8.021,13.239
			C121.329,26.147,126.107,16.979,126.107,8.278z"/>
		<path fill="#721950" d="M54.452,139.724c0,13.282-5.065,9.889,9.923,9.889c1.806,0,3.613,0.028,5.419,0.066
			c0.019,0.003,0.038,0.003,0.057,0.003c2.286,0,4.847-1.511,2.711-3.891c-1.375-1.533-5.562-2.114-6.91-2.114
			c-9.021,0-9.04,5.317-9.04-1.195c0-3.642,0.819-8.08,0.819-11.216c0-1.526-0.243-2.756-0.586-3.775
			c-1.801,0.198-3.506,0.383-5.105,0.517C53.805,131.686,54.452,135.678,54.452,139.724z"/>
		<path fill="#721950" d="M92.698,139.724c0,13.282-5.067,9.889,9.923,9.889c1.806,0,3.61,0.028,5.418,0.066
			c0.019,0.003,0.038,0.003,0.057,0.003c2.285,0,4.847-1.511,2.712-3.891c-1.374-1.533-5.562-2.114-6.908-2.114
			c-9.022,0-9.042,5.317-9.042-1.195c0-3.642,0.818-8.08,0.818-11.216c0-0.919-0.103-1.712-0.244-2.446
			c-1.692-0.259-3.507-0.565-5.484-0.873C92.04,131.643,92.698,135.655,92.698,139.724z"/>
		<path fill="#A51E64" d="M123.625,83.101c-0.073-0.858-0.147-1.724-0.229-2.61c-0.201-2.24-0.416-4.44-0.639-6.617
			c-1.864-18.111-4.579-33.886-9.7-45.907c-2.192-5.139-4.829-9.581-8.021-13.239C98.605,7.356,89.904,3.2,77.917,3.2
			c-11.346,0-20.905,4.441-28.596,12.05c-3.835,3.793-7.203,8.378-10.093,13.599c-5.214,9.416-8.881,20.888-10.917,33.531
			c-0.548,3.403-0.968,6.897-1.279,10.451c-0.404,4.612-0.62,9.33-0.62,14.126c0,32.169,3.574,40.175,19.276,41.203
			c1.852,0.122,3.87,0.031,6.051-0.153c1.6-0.134,3.305-0.318,5.105-0.517c4.88-0.54,10.514-1.159,17.156-1.021
			c6.513,0.133,11.627,0.806,15.946,1.478c1.978,0.308,3.792,0.614,5.484,0.873c3.642,0.559,6.766,0.887,9.896,0.47
			C123.663,126.851,126.25,114.338,123.625,83.101z"/>
	</g>
	<g>
		<path fill="#012430" d="M108.969,54.134c-1.958,4.264-7.055,11.742-9.397,11.479c-0.038-0.004-5.38-9.211-6.936-7.952
			c-2.021,1.635-3.403,4.257-8.068,8.678c-4.265-10.377-7.447-8.21-10.54-4.716c-2.318,2.619-5.169,5.844-5.169,5.844
			c-2.772,0-4.989-11.788-7.288-9.276c-2.972,3.247-9.832,8.808-9.832,8.808c-4.465-1.438-8.334-8.537-8.914-11.488
			c-6.69,2.16-7.919,7.649-7.919,10.828c0,7.204-0.163,16.815,5.663,19.227c2.782,1.154,5.739,1.732,8.762,1.924
			c-0.085-0.407-0.131-0.835-0.131-1.271c0-2.357,3.494-10.593,7.57-12.155c0,0,4.812,6.119,7.313,9.368
			c1.934,2.512,4.757-9.836,7.09-9.836c0,0,2.399,3.225,4.349,5.844c2.601,3.495,2.13,4.137,8.868-4.716
			c3.925,4.423,5.087,7.044,6.789,8.68c1.309,1.259,5.803-7.948,5.835-7.954c1.865-0.247,5.813,6.448,7.624,10.781
			c4.692-0.412,9.121-3.633,9.121-10.819C113.76,66.679,117.252,57.944,108.969,54.134z"/>
		<path fill="#FFEFC9" d="M51.739,66.999c0,0,6.859-5.561,9.832-8.808c2.299-2.511,4.515,9.276,7.288,9.276
			c0,0,2.852-3.226,5.169-5.844c3.092-3.494,6.275-5.661,10.54,4.716c4.665-4.421,6.047-7.043,8.068-8.678
			c1.556-1.259,6.897,7.948,6.936,7.952c2.343,0.262,7.439-7.216,9.397-11.479c-0.811-0.374-1.727-0.702-2.779-0.976
			c-8.305-0.733-5.628,2.613-30.737,2.613c-5.449,0-14.137,0.017-21.698-0.892c-4.701-0.565-8.251-0.232-10.93,0.632
			C43.405,58.462,47.274,65.561,51.739,66.999z"/>
		<path fill="#FFEFC9" d="M97.015,75.451c-0.032,0.005-4.526,9.212-5.835,7.954c-1.702-1.636-2.864-4.257-6.789-8.68
			c-6.738,8.853-6.268,8.211-8.868,4.716c-1.95-2.619-4.349-5.844-4.349-5.844c-2.333,0-5.157,12.348-7.09,9.836
			c-2.501-3.249-7.313-9.368-7.313-9.368c-4.076,1.562-7.57,9.797-7.57,12.155c0,0.436,0.046,0.863,0.131,1.271
			c0.766,0.049,1.537,0.077,2.31,0.077c11.313,0,18.172-4.182,26.012-3.99c12.312,0.298,20.907,2.703,25.937,2.703
			c0.352,0,0.702-0.018,1.05-0.049C102.827,81.898,98.88,75.204,97.015,75.451z"/>
	</g>
	<ellipse fill="#FFEFC9" cx="77.933" cy="39.563" rx="7.946" ry="7.837"/>
	<ellipse cx="77.933" cy="39.334" rx="3.773" ry="3.729"/>
	<path fill="#891F5B" d="M85.533,37.27c-0.995-3.208-4.021-5.542-7.601-5.542c-3.633,0-6.697,2.405-7.643,5.69L85.533,37.27z"/>
	<path fill="#FFEFC9" d="M108.594,31.804c2.304,3.752,1.088,8.454-2.718,10.502c-3.802,2.048-8.753,0.667-11.057-3.085
		c-2.304-3.752-1.088-8.455,2.718-10.502C101.34,26.671,106.292,28.052,108.594,31.804z"/>
	<ellipse cx="101.411" cy="34.573" rx="3.773" ry="3.728"/>
	<path fill="#891F5B" d="M107.073,29.977c-2.567-2.317-6.433-2.928-9.536-1.258c-3.149,1.696-4.526,5.212-3.6,8.501L107.073,29.977z
		"/>
	<path fill="#FFEFC9" d="M60.018,38.984c-2.157,3.829-7.051,5.377-10.932,3.459c-3.881-1.918-5.279-6.575-3.123-10.403
		c2.156-3.828,7.05-5.376,10.932-3.459C60.776,30.499,62.174,35.157,60.018,38.984z"/>
	<ellipse cx="53.52" cy="34.573" rx="3.773" ry="3.728"/>
	<path fill="#891F5B" d="M60.855,36.805c0.719-3.273-0.794-6.659-3.959-8.224c-3.213-1.587-7.122-0.799-9.596,1.693L60.855,36.805z"
		/>
</g>
</svg>
