<?xml version="1.0" encoding="utf-8"?>
<!-- Generator: Adobe Illustrator 16.0.3, SVG Export Plug-In . SVG Version: 6.00 Build 0)  -->
<!DOCTYPE svg PUBLIC "-//W3C//DTD SVG 1.1//EN" "http://www.w3.org/Graphics/SVG/1.1/DTD/svg11.dtd">
<svg version="1.1" id="Layer_1" xmlns="http://www.w3.org/2000/svg" xmlns:xlink="http://www.w3.org/1999/xlink" x="0px" y="0px"
	 width="150px" height="150px" viewBox="0 0 150 150" enable-background="new 0 0 150 150" xml:space="preserve">
<g>
	<g>
		<path fill="#320159" d="M131.467,77.221c-1.253,0.525-3.062,2.072-2.665,4.504c0.19,1.18,1.499,2.063,2.771,2.992
			C131.645,82.148,131.688,79.481,131.467,77.221z"/>
		<path fill="#320159" d="M115.683,123.021c0.125-0.076,0.245-0.151,0.368-0.231c-2.35-2.436-3.658-7.252-7.299-7.252
			c-2.521,0-4.322,5.624-6.842,8.085C107.547,124.993,112.503,124.971,115.683,123.021z"/>
		<path fill="#320159" d="M89.197,51.24c-3.345,0-7.78-1.447-11.59-3.227c-2.409,6.919-6.137,13.805-9.314,20.481
			C85.914,60.891,93.099,51.24,89.197,51.24z"/>
		<path fill="#320159" d="M91.672,107.5c-2.988,0-5.539,3.938-7.609,8.377c4.283,2.625,8.779,4.796,13.078,6.313
			C95.558,117.38,96.174,107.5,91.672,107.5z"/>
		<path fill="#320159" d="M126.822,106.116c-1.969,0-3.744,0.662-3.744,2.588c0,2.061,1.068,4.251,1.872,6.344
			c1.948-2.538,3.466-5.495,4.544-9.108C128.603,106.018,127.786,106.116,126.822,106.116z"/>
		<path fill="#320159" d="M78.844,112.366c0.463-3.188,0.955-6.265,1.193-7.915c1.484-10.253-1.352-12.792-7.426-7.758
			c-2.228,1.844-4.007,3.285-5.412,4.378C70.163,105.114,74.247,108.98,78.844,112.366z"/>
		<path fill="#320159" d="M127.318,95.861c0,2.816,1.752,4.744,3,6.771c0.693-3.376,1.076-7.26,1.135-11.793
			C129.547,91.854,127.318,92.985,127.318,95.861z"/>
		<path fill="#320159" d="M65.791,98.996c4.608-6.307,13.137-17.384,14.493-24.475c-4.73,2.746-9.708,1.047-14.322-0.867
			c-2.145,5.091-3.664,10.027-3.664,14.723C62.296,91.883,63.593,95.486,65.791,98.996z"/>
		<path fill="#320159" d="M78.729,44.416c4.998-1.747,7.738-5.798,10.469-12.852c-5.09-0.21-6.597-0.427-9.533-1.98
			c0.303,1.814,0.457,3.625,0.457,5.399C80.121,38.116,79.592,41.266,78.729,44.416z"/>
		<path fill="#520087" d="M99.557,124.767c0.865,0.016,1.639-0.441,2.354-1.145c-1.547-0.374-3.144-0.856-4.77-1.431
			C97.644,123.726,98.367,124.749,99.557,124.767z"/>
		<path fill="#520087" d="M140.438,55.953c-2.751-3.163-6.146-8.694-9.996-8.694c-5.652,0-12.709,22.132-9.178,28.654
			c1.072,1.985,6.928-4.5,7.788-4.164c1.489,0.585,2.147,2.725,2.415,5.472c0.221,2.261,0.178,4.928,0.105,7.498
			c-0.048,1.693-0.107,3.344-0.107,4.794c0,0.447-0.006,0.886-0.012,1.327c-0.06,4.533-0.441,8.417-1.135,11.793
			c-0.237,1.162-0.513,2.262-0.824,3.307c-1.078,3.613-2.596,6.57-4.543,9.108c-2.347,3.06-5.318,5.507-8.9,7.741
			c-0.123,0.08-0.243,0.155-0.368,0.231c-3.181,1.95-8.136,1.973-13.772,0.602c-0.716,0.703-1.488,1.16-2.355,1.145
			c-1.188-0.019-1.912-1.042-2.414-2.575c-4.298-1.518-8.795-3.688-13.078-6.313c-1.787-1.096-3.537-2.271-5.221-3.513
			c-4.595-3.386-8.68-7.252-11.644-11.295c-0.503-0.687-0.974-1.38-1.409-2.075c-2.197-3.51-3.495-7.113-3.495-10.619
			c0-4.696,1.52-9.633,3.664-14.724c0.718-1.703,1.504-3.424,2.332-5.158c3.179-6.677,6.905-13.563,9.314-20.481
			c0.418-1.199,0.793-2.398,1.123-3.599c0.861-3.149,1.391-6.3,1.391-9.434c0-1.774-0.153-3.584-0.455-5.399
			C77.471,16.314,67.291,2.778,49.503,1.201C22.979-1.152,6.243,17.449,5.981,48.202l-4.216-0.817
			c-0.039,0.363-2.026,10.53,0.568,17.428c3.6,9.571,7.784,13.436,17.135,18.19c0,0,0.416,59.14,63.433,65.427
			c32.205,3.215,59.74-6.621,59.74-43.142c0-5.495-1.254-13.03-4.256-25.426c-4.119-17.012,3.539-8.114,9.708-9.879
			C151.653,68.967,143.814,59.835,140.438,55.953z"/>
	</g>
	<path fill="none" stroke="#17022B" stroke-width="0.7006" stroke-miterlimit="10" d="M1.765,47.385l4.216,0.817
		c0,0,21.698,4.148,30.61,2.484c11.881-2.217,17.205-5.542,18.938-11.085"/>
	<g>
		<path fill="#FFEFC9" d="M27.847,46.991c0,1.249-0.253,2.383-0.696,3.404c0.933,0.053,1.849,0.093,2.735,0.114
			C28.967,48.178,27.847,46.663,27.847,46.991z"/>
		<path fill="#FFEFC9" d="M10.316,48.395c-1.59-3.549-2.854-7.191-3.389-11.011c-2.241,2.997-2.994,6.268-3.215,9.816l2.353,0.456
			C6.124,47.667,7.775,47.979,10.316,48.395z"/>
		<path fill="#FFEFC9" d="M42.575,40.247c0.101,0.794-0.047,5.854-0.239,8.578c2.106-0.58,3.919-1.225,5.472-1.949
			C46.1,44.256,44.127,42.11,42.575,40.247z"/>
	</g>
	<ellipse fill="#440377" cx="13.939" cy="24.889" rx="11.634" ry="10.601"/>
	<ellipse fill="#FFE0A8" cx="14.435" cy="24.681" rx="10.521" ry="9.907"/>
	<ellipse fill="#440377" cx="40.986" cy="27.084" rx="12.192" ry="11.639"/>
	<ellipse fill="#FFE0A8" cx="41.233" cy="26.806" rx="11.326" ry="10.67"/>
	<ellipse cx="12.291" cy="24.82" rx="4.578" ry="5.236"/>
	<ellipse cx="36.716" cy="25.558" rx="4.578" ry="5.236"/>
</g>
</svg>
