<?xml version="1.0" encoding="utf-8"?>
<!-- Generator: Adobe Illustrator 16.0.3, SVG Export Plug-In . SVG Version: 6.00 Build 0)  -->
<!DOCTYPE svg PUBLIC "-//W3C//DTD SVG 1.1//EN" "http://www.w3.org/Graphics/SVG/1.1/DTD/svg11.dtd">
<svg version="1.1" id="Layer_1" xmlns="http://www.w3.org/2000/svg" xmlns:xlink="http://www.w3.org/1999/xlink" x="0px" y="0px"
	 width="150px" height="150px" viewBox="0 0 150 150" enable-background="new 0 0 150 150" xml:space="preserve">
<g>
	<g>
		<path fill="#320159" d="M132.231,77.25c-1.271,0.533-3.103,2.102-2.701,4.566c0.193,1.196,1.519,2.09,2.808,3.032
			C132.41,82.244,132.454,79.542,132.231,77.25z"/>
		<path fill="#320159" d="M116.233,123.67c0.126-0.077,0.247-0.155,0.373-0.234c-2.381-2.469-3.708-7.351-7.397-7.351
			c-2.557,0-4.381,5.7-6.936,8.195C107.986,125.669,113.01,125.646,116.233,123.67z"/>
		<path fill="#320159" d="M89.389,50.919c-3.39,0-7.886-1.467-11.746-3.27c-2.442,7.012-6.22,13.991-9.441,20.758
			C86.063,60.7,93.343,50.919,89.389,50.919z"/>
		<path fill="#320159" d="M91.897,107.939c-3.028,0-5.614,3.99-7.711,8.491c4.34,2.66,8.897,4.86,13.253,6.399
			C95.835,117.952,96.46,107.939,91.897,107.939z"/>
		<path fill="#320159" d="M127.523,106.536c-1.996,0-3.795,0.672-3.795,2.623c0,2.089,1.082,4.31,1.898,6.43
			c1.974-2.571,3.513-5.57,4.604-9.231C129.327,106.438,128.5,106.536,127.523,106.536z"/>
		<path fill="#320159" d="M78.896,112.872c0.469-3.231,0.967-6.35,1.21-8.023c1.504-10.391-1.369-12.965-7.527-7.863
			c-2.258,1.87-4.062,3.33-5.485,4.438C70.097,105.521,74.237,109.44,78.896,112.872z"/>
		<path fill="#320159" d="M128.025,96.142c0,2.856,1.776,4.809,3.041,6.864c0.703-3.421,1.09-7.357,1.151-11.952
			C130.284,92.082,128.025,93.229,128.025,96.142z"/>
		<path fill="#320159" d="M65.666,99.32c4.67-6.392,13.314-17.618,14.69-24.806c-4.796,2.784-9.841,1.062-14.517-0.878
			c-2.174,5.16-3.714,10.163-3.714,14.923C62.124,92.112,63.439,95.764,65.666,99.32z"/>
		<path fill="#320159" d="M78.78,44.002c5.064-1.77,7.841-5.877,10.608-13.026c-5.157-0.213-6.684-0.432-9.661-2.007
			c0.306,1.839,0.462,3.674,0.462,5.472C80.189,37.617,79.654,40.81,78.78,44.002z"/>
		<path fill="#520087" d="M99.888,125.44c0.878,0.015,1.661-0.448,2.386-1.16c-1.567-0.38-3.186-0.869-4.834-1.45
			C97.95,124.384,98.684,125.421,99.888,125.44z"/>
		<path fill="#520087" d="M141.322,55.695c-2.788-3.206-6.229-8.811-10.131-8.811c-5.728,0-12.881,22.431-9.303,29.041
			c1.089,2.012,7.022-4.561,7.894-4.22c1.51,0.593,2.177,2.762,2.449,5.545c0.223,2.292,0.179,4.994,0.106,7.599
			c-0.049,1.717-0.108,3.389-0.108,4.859c0,0.455-0.006,0.9-0.012,1.346c-0.062,4.595-0.448,8.531-1.151,11.952
			c-0.241,1.177-0.52,2.293-0.835,3.352c-1.092,3.661-2.631,6.66-4.604,9.231c-2.379,3.101-5.391,5.581-9.021,7.847
			c-0.126,0.079-0.247,0.157-0.373,0.234c-3.224,1.977-8.247,1.999-13.96,0.61c-0.725,0.712-1.508,1.175-2.386,1.16
			c-1.204-0.02-1.938-1.057-2.448-2.61c-4.355-1.539-8.913-3.739-13.253-6.399c-1.813-1.111-3.587-2.302-5.291-3.559
			c-4.658-3.432-8.799-7.351-11.802-11.448c-0.51-0.696-0.987-1.399-1.428-2.104c-2.227-3.557-3.542-7.208-3.542-10.762
			c0-4.76,1.54-9.763,3.714-14.923c0.728-1.726,1.525-3.47,2.363-5.228c3.222-6.767,6.999-13.746,9.441-20.758
			c0.423-1.215,0.805-2.431,1.138-3.648c0.874-3.192,1.409-6.385,1.409-9.561c0-1.798-0.156-3.633-0.462-5.472
			C77.504,15.521,67.186,1.802,49.158,0.203C22.276-2.182,5.313,16.671,5.048,47.84l-4.273-0.828
			C0.735,47.38-1.279,57.684,1.35,64.676c3.648,9.7,7.889,13.616,17.367,18.436c0,0,0.421,59.94,64.291,66.311
			c32.641,3.258,60.547-6.71,60.547-43.724c0-5.569-1.271-13.207-4.313-25.769c-4.176-17.243,3.586-8.225,9.839-10.013
			C152.689,68.885,144.745,59.63,141.322,55.695z"/>
	</g>
	<path fill="none" stroke="#17022B" stroke-width="0.7006" stroke-miterlimit="10" d="M0.775,47.012l4.273,0.828
		c0,0,21.991,4.204,31.024,2.518c12.042-2.247,17.438-5.617,19.194-11.235"/>
	<g>
		<path fill="#FFEFC9" d="M27.209,46.612c0,1.266-0.257,2.415-0.705,3.45c0.945,0.054,1.874,0.095,2.772,0.116
			C28.345,47.816,27.209,46.28,27.209,46.612z"/>
		<path fill="#FFEFC9" d="M9.442,48.035c-1.612-3.597-2.893-7.289-3.435-11.16c-2.271,3.038-3.034,6.353-3.259,9.949l2.385,0.462
			C5.193,47.297,6.866,47.614,9.442,48.035z"/>
		<path fill="#FFEFC9" d="M42.136,39.777c0.103,0.805-0.047,5.933-0.242,8.693c2.135-0.587,3.972-1.241,5.546-1.975
			C45.709,43.841,43.71,41.666,42.136,39.777z"/>
	</g>
	<ellipse fill="#440377" cx="13.114" cy="24.212" rx="11.792" ry="10.744"/>
	<ellipse fill="#FFE0A8" cx="13.616" cy="24.001" rx="10.663" ry="10.041"/>
	<ellipse fill="#440377" cx="40.526" cy="26.436" rx="12.357" ry="11.797"/>
	<ellipse fill="#FFE0A8" cx="40.777" cy="26.155" rx="11.479" ry="10.814"/>
	<ellipse cx="11.443" cy="24.142" rx="4.64" ry="5.307"/>
	<ellipse cx="36.198" cy="24.89" rx="4.64" ry="5.307"/>
</g>
</svg>
