<?xml version="1.0" encoding="utf-8"?>
<!-- Generator: Adobe Illustrator 16.0.3, SVG Export Plug-In . SVG Version: 6.00 Build 0)  -->
<!DOCTYPE svg PUBLIC "-//W3C//DTD SVG 1.1//EN" "http://www.w3.org/Graphics/SVG/1.1/DTD/svg11.dtd">
<svg version="1.1" id="Layer_1" xmlns="http://www.w3.org/2000/svg" xmlns:xlink="http://www.w3.org/1999/xlink" x="0px" y="0px"
	 width="150px" height="150px" viewBox="0 0 150 150" enable-background="new 0 0 150 150" xml:space="preserve">
<g>
	<path fill="#D3AE13" d="M33.205,80.665c0,0-1.651-0.028-3.091-0.028c-0.834,0-3.173,0-3.125,1.382
		c0.053,1.513,3.255,1.09,2.903,1.423c-0.712,0.672-1.183,0.635-2.098,1.986c-0.993,1.469,0.652,1.934,1.8,1.327
		c2.886-1.525,2.495-1.872,2.009,0.56c-0.291,1.455,0.079,1.986,0.41,2.126c1.056,0.454,1.454-0.388,2.044-2.199
		c0.749-2.286,1.267-3.091,1.267-3.091s0.42-2.877,12.802-9.604c-0.275-2.033-0.564-4.053-0.847-6.057
		C41.879,72.511,35.515,78.145,33.205,80.665z"/>
	<path fill="#D3AE13" d="M120.24,78.84c-1.404-0.322-3.02-0.667-3.02-0.667c-2.057-3.624-10.809-13.147-16.873-18.122
		c-0.174,2.118-0.429,4.272-0.74,6.434c12.238,8.63,14.77,14.612,14.77,14.612s0.322,0.9,0.54,3.297
		c0.17,1.896,0.367,2.807,1.5,2.602c0.354-0.064,0.833-0.5,0.875-1.98c0.071-2.48-0.388-2.23,2.085-0.098
		c0.98,0.85,2.689,0.766,2.051-0.887c-0.591-1.523-1.057-1.592-1.6-2.408c-0.269-0.402,2.757,0.728,3.146-0.732
		C123.331,79.551,121.053,79.026,120.24,78.84z"/>
	<path fill="#EDC914" d="M97.514,108.518c-3.207,0-4.632-3.081-4.632-6.273c0-6.426,4.63-21.26,6.726-35.758
		c0.312-2.162,0.566-4.316,0.74-6.434c0.169-2.028,0.268-4.024,0.268-5.959c0-15.445-5.691-24.892-7.104-28.003
		c-1.083-2.38-0.527-11.656-1.695-15.362c-0.359-1.135-2.357-1.143-2.734-1.037c-0.388,0.108,0.701,14.33,0.187,14.607
		c-1.224,0.659-3.06-0.188-4.995-0.188c-2.562,0-6.763-0.753-9.331-0.753c-7.603,0-18.472,2.356-18.85,1.414
		c-0.376-0.942-0.188-2.212-0.188-5.466c0-0.891,0.691-5.537-0.128-5.537c-0.864,0-2.833-0.417-3.076,1.013
		c-1.037,6.125-1.999,12.46-5.371,21.958c-3.161,8.899-1.716,20.013-0.056,31.751c0.284,2.004,0.573,4.024,0.847,6.057
		c0.244,1.806,0.474,3.617,0.678,5.433c0.437,3.887,0.299,14.179,0.299,18.079c0,18.715,7.321,12.401,7.169,17.509
		c-0.015,0.503,0.018,1.02,0.057,1.551c0.598,7.955,5.676,18.716,5.213,18.716c-5.076,0-11.107,3.781-11.486,8.721
		c-0.235,3.064,1.008,0.033,2.256,0.398c0.586,0.171-0.389,1.084,0.134,1.905c0.06,0.093,0.189,0.127,0.364,0.127
		c0.418,0,1.748-0.597,2.388-0.597c1.229,0,1.401,1.342,1.692,2.213c0.376-0.188,1.592-7.032,7.231-7.563
		c1.951-0.185,0.074-4.004-0.267-5.439c-2.139-9.035-2.834-13.88-2.428-16.314c0.828-4.98,6.175-1.054,13.228-1.054
		c5.823,0,8.713-2.037,9.086-1.736c0.371,0.303,0.445,3.804,0.748,4.934c0.281,1.057,2.926,14.805,2.463,14.805
		c-5.076,0-11.107,3.78-11.486,8.72c-0.236,3.063,1.008,0.035,2.255,0.398c0.587,0.172-0.388,1.084,0.136,1.904
		c0.061,0.096,0.188,0.127,0.363,0.127c0.418,0,1.748-0.595,2.389-0.595c1.229,0,1.402,1.341,1.691,2.212
		c0.377-0.187,1.592-7.031,7.232-7.563c1.95-0.184,0.351-4.215,0.01-5.653c-2.141-9.033-1.363-14.463-0.988-16.271
		c0.238-1.137,0.39-3.238,1.641-4.119c0,0,2.215,0.482,3.886,0.148c4.482-0.896,7.47-3.188,7.47-7.622
		C101.548,105.948,101.207,108.518,97.514,108.518z"/>
	<ellipse fill="#AD9102" cx="73.311" cy="46.467" rx="14.168" ry="12.561"/>
	<ellipse fill="#F9FFD5" cx="73.183" cy="46.023" rx="12.81" ry="11.616"/>
	<ellipse cx="71.967" cy="46.368" rx="5.574" ry="4.895"/>
	<g>
		<path fill="#F9FFD5" d="M84.969,82.539c-0.014,0.004-0.164,7.158-0.726,6.223c-0.729-1.216-1.864-2.857-3.546-6.145
			c-2.892,6.58-2.69,6.102-3.804,3.506c-0.837-1.946-1.867-4.344-1.867-4.344c-1.001,0-3.399,9.164-4.229,7.299
			c-1.073-2.416-3.092-7.566-3.092-7.566c-1.404,0.93-3.659,3.479-4.492,5.357c1.95,2.189,4.524,3.817,7.395,4.469
			c1.183,0.269,2.358,0.381,3.525,0.381c5.273,0,9.954-1.221,13.207-4.359C86.527,84.805,85.53,82.41,84.969,82.539z"/>
		<path fill="#F9FFD5" d="M67.305,77.035c0,0,2.943-4.132,4.218-6.545c0.986-1.867,1.937,6.894,3.126,6.894
			c0,0,1.223-2.398,2.218-4.343c1.326-2.596,2.691-4.208,4.521,3.504c2-3.286,2.594-5.233,3.461-6.449
			c0.668-0.936,2.957,5.908,2.975,5.91c0.836,0.162,2.586-4.704,3.637-8.173c-0.453-1.379-1.257-2.285-2.691-2.256
			c-3.678,0.075-5.027,2.45-11.185,3.016c-3.367,0.308-7.038-0.754-10.87-1.947c-1.157-0.361-3.08-0.838-4.083-0.396
			C63.619,69.956,65.8,76.198,67.305,77.035z"/>
		<path fill="#070F1B" d="M92.035,73.745c0-2.129-0.054-4.331-0.574-5.911c-1.05,3.469-2.801,8.336-3.637,8.172
			c-0.018-0.002-2.307-6.845-2.975-5.908c-0.867,1.215-1.46,3.164-3.461,6.449c-1.83-7.713-3.195-6.102-4.521-3.505
			c-0.995,1.946-2.218,4.343-2.218,4.343c-1.19,0-2.141-8.761-3.126-6.894c-1.274,2.414-4.218,6.546-4.218,6.546
			c-1.505-0.839-3.686-7.081-4.673-10.786c-0.092,0.04-0.178,0.086-0.253,0.143c-3.039,2.301-2.87,8.039-2.87,11.102
			c0,1.047,0.105,2.082,0.356,3.097c0.575,2.321,1.754,4.483,3.349,6.274c0.833-1.877,3.087-4.427,4.492-5.357
			c0,0,2.019,5.15,3.092,7.566c0.83,1.866,3.227-7.299,4.229-7.299c0,0,1.029,2.398,1.867,4.344
			c1.114,2.596,0.914,3.073,3.805-3.507c1.682,3.287,2.814,4.929,3.545,6.146c0.561,0.936,0.713-6.219,0.727-6.223
			c0.56-0.129,1.557,2.266,2.371,4.82C90.266,84.537,92.035,80.169,92.035,73.745z"/>
	</g>
	<path fill="#AD9102" d="M96.248,6.724l-0.523-0.009c0.223,0.744,0.301,1.523,0.194,2.303c-0.437,3.279-3.825,5.55-7.571,5.073
		s-6.43-3.521-5.992-6.801c0.037-0.274,0.102-0.541,0.178-0.803L82.18,6.481c-0.314,0.725-0.496,1.509-0.496,2.331
		c0,3.612,3.35,6.539,7.48,6.539s7.48-2.927,7.48-6.539C96.645,8.082,96.501,7.381,96.248,6.724z"/>
	<path fill="#AD9102" d="M60.294,12.41c-0.437,3.279-3.828,5.55-7.573,5.074c-3.745-0.477-6.426-3.521-5.989-6.801
		c0.037-0.274,0.101-0.541,0.177-0.802l-0.218-0.004c-0.237,0.644-0.37,1.331-0.37,2.045c0,3.612,3.277,6.539,7.319,6.539
		c4.043,0,7.32-2.927,7.32-6.539c0-0.626-0.104-1.23-0.288-1.804l-0.574-0.01C60.321,10.851,60.399,11.63,60.294,12.41z"/>
	<path fill="#F9FFD5" d="M46.732,10.683c-0.437,3.278,2.245,6.323,5.989,6.801c3.745,0.477,7.136-1.795,7.573-5.074
		c0.104-0.78,0.026-1.559-0.196-2.302L46.909,9.88C46.833,10.142,46.769,10.408,46.732,10.683z"/>
	<ellipse transform="matrix(-0.1292 0.9916 -0.9916 -0.1292 71.3155 -41.397)" cx="53.834" cy="10.615" rx="2.05" ry="2.331"/>
	<path fill="#C6A502" d="M52.791,4.426c-2.942,0.22-5.843,2.064-6.721,5.439l0.621,0.011l0.218,0.004l13.189,0.227l0.573,0.009
		l0.309,0.006C59.587,6.144,57.031,4.107,52.791,4.426z"/>
	<path fill="#F9FFD5" d="M82.355,7.291c-0.436,3.278,2.246,6.323,5.992,6.801c3.746,0.477,7.134-1.794,7.571-5.073
		c0.104-0.78,0.026-1.559-0.194-2.303L82.533,6.487C82.457,6.75,82.393,7.016,82.355,7.291z"/>
	<ellipse transform="matrix(-0.1291 0.9916 -0.9916 -0.1291 108.1702 -80.5546)" cx="89.459" cy="7.223" rx="2.05" ry="2.331"/>
	<path fill="#C6A502" d="M88.416,1.033c-2.94,0.221-5.843,2.065-6.722,5.439L82.18,6.48l0.353,0.006l13.191,0.228l0.523,0.009
		l0.358,0.006C95.211,2.752,92.656,0.715,88.416,1.033z"/>
</g>
</svg>
