<?xml version="1.0" encoding="utf-8"?>
<!-- Generator: Adobe Illustrator 16.0.3, SVG Export Plug-In . SVG Version: 6.00 Build 0)  -->
<!DOCTYPE svg PUBLIC "-//W3C//DTD SVG 1.1//EN" "http://www.w3.org/Graphics/SVG/1.1/DTD/svg11.dtd">
<svg version="1.1" id="Layer_1" xmlns="http://www.w3.org/2000/svg" xmlns:xlink="http://www.w3.org/1999/xlink" x="0px" y="0px"
	 width="150px" height="150px" viewBox="0 0 150 150" enable-background="new 0 0 150 150" xml:space="preserve">
<g>
	<path fill="#D3AE13" d="M32.64,80.741c0,0-1.673-0.028-3.133-0.028c-0.846,0-3.216,0-3.167,1.401
		c0.053,1.533,3.299,1.104,2.942,1.44c-0.722,0.682-1.198,0.645-2.126,2.015c-1.007,1.487,0.661,1.958,1.824,1.344
		c2.925-1.545,2.529-1.897,2.036,0.568c-0.295,1.474,0.08,2.013,0.415,2.155c1.071,0.459,1.474-0.394,2.073-2.229
		c0.758-2.317,1.283-3.134,1.283-3.134s0.426-2.915,12.975-9.733c-0.278-2.06-0.571-4.108-0.858-6.139
		C41.431,72.478,34.981,78.188,32.64,80.741z"/>
	<path fill="#D3AE13" d="M120.851,78.892c-1.423-0.328-3.06-0.676-3.06-0.676c-2.084-3.673-10.955-13.325-17.101-18.367
		c-0.177,2.147-0.435,4.33-0.751,6.521c12.405,8.747,14.969,14.809,14.969,14.809s0.328,0.913,0.548,3.342
		c0.172,1.923,0.373,2.844,1.52,2.637c0.359-0.064,0.845-0.505,0.888-2.007c0.072-2.514-0.393-2.26,2.112-0.098
		c0.994,0.859,2.727,0.775,2.078-0.9c-0.598-1.544-1.07-1.614-1.62-2.44c-0.273-0.409,2.794,0.737,3.189-0.743
		C123.985,79.612,121.675,79.081,120.851,78.892z"/>
	<path fill="#EDC914" d="M97.818,108.971c-3.25,0-4.694-3.123-4.694-6.36c0-6.512,4.693-21.547,6.815-36.24
		c0.316-2.191,0.574-4.374,0.751-6.521c0.171-2.055,0.271-4.078,0.271-6.039c0-15.655-5.767-25.229-7.199-28.382
		c-1.097-2.412-0.536-11.814-1.719-15.569c-0.364-1.151-2.389-1.159-2.771-1.051c-0.392,0.11,0.711,14.524,0.19,14.805
		c-1.241,0.668-3.1-0.191-5.063-0.191c-2.597,0-6.855-0.764-9.457-0.764c-7.705,0-18.721,2.388-19.104,1.433
		c-0.382-0.955-0.191-2.242-0.191-5.54c0-0.903,0.7-5.612-0.13-5.612c-0.876,0-2.871-0.423-3.117,1.027
		c-1.051,6.208-2.026,12.628-5.444,22.255c-3.203,9.019-1.739,20.284-0.056,32.181c0.287,2.031,0.58,4.079,0.858,6.139
		c0.247,1.829,0.481,3.666,0.688,5.505c0.442,3.939,0.303,14.371,0.303,18.324c0,18.968,7.42,12.569,7.266,17.746
		c-0.015,0.509,0.018,1.033,0.058,1.57c0.606,8.064,5.752,18.971,5.284,18.971c-5.144,0-11.258,3.832-11.642,8.838
		c-0.238,3.105,1.022,0.034,2.287,0.404c0.594,0.173-0.394,1.098,0.136,1.931c0.061,0.095,0.192,0.129,0.369,0.129
		c0.424,0,1.771-0.605,2.42-0.605c1.246,0,1.419,1.36,1.714,2.243c0.382-0.191,1.614-7.127,7.329-7.665
		c1.978-0.187,0.075-4.058-0.27-5.513c-2.168-9.157-2.872-14.069-2.461-16.536c0.839-5.047,6.259-1.068,13.406-1.068
		c5.902,0,8.832-2.064,9.208-1.759c0.378,0.306,0.454,3.854,0.76,5c0.285,1.07,2.965,15.006,2.496,15.006
		c-5.144,0-11.258,3.831-11.642,8.838c-0.239,3.104,1.022,0.034,2.286,0.403c0.594,0.174-0.394,1.098,0.137,1.931
		c0.061,0.096,0.191,0.129,0.368,0.129c0.424,0,1.771-0.604,2.421-0.604c1.246,0,1.42,1.359,1.714,2.242
		c0.382-0.19,1.613-7.127,7.329-7.665c1.978-0.186,0.357-4.273,0.012-5.729c-2.169-9.156-1.383-14.661-1.002-16.493
		c0.24-1.152,0.394-3.282,1.663-4.176c0,0,2.243,0.49,3.938,0.151c4.543-0.909,7.572-3.23,7.572-7.724
		C101.907,106.366,101.561,108.971,97.818,108.971z"/>
	<ellipse fill="#AD9102" cx="73.288" cy="46.081" rx="14.358" ry="12.731"/>
	<ellipse fill="#F9FFD5" cx="73.158" cy="45.632" rx="12.983" ry="11.773"/>
	<ellipse cx="71.926" cy="45.981" rx="5.65" ry="4.961"/>
	<g>
		<path fill="#F9FFD5" d="M85.104,82.641c-0.014,0.004-0.167,7.255-0.736,6.306c-0.739-1.231-1.889-2.896-3.594-6.227
			c-2.931,6.668-2.726,6.185-3.855,3.553c-0.849-1.973-1.892-4.402-1.892-4.402c-1.014,0-3.445,9.287-4.286,7.396
			c-1.087-2.446-3.134-7.668-3.134-7.668c-1.423,0.942-3.708,3.527-4.553,5.43c1.977,2.219,4.586,3.869,7.495,4.53
			c1.199,0.272,2.39,0.387,3.573,0.387c5.344,0,10.089-1.239,13.385-4.42C86.683,84.938,85.673,82.51,85.104,82.641z"/>
		<path fill="#F9FFD5" d="M67.201,77.063c0,0,2.982-4.188,4.275-6.634c1-1.892,1.963,6.986,3.168,6.986c0,0,1.24-2.429,2.248-4.401
			c1.344-2.631,2.729-4.264,4.583,3.553c2.027-3.331,2.628-5.305,3.507-6.537c0.678-0.949,2.999,5.987,3.016,5.989
			c0.846,0.165,2.621-4.767,3.686-8.283c-0.459-1.398-1.275-2.316-2.729-2.287c-3.726,0.076-5.095,2.483-11.335,3.056
			c-3.413,0.313-7.133-0.764-11.017-1.974c-1.173-0.366-3.121-0.849-4.137-0.4C63.466,69.887,65.676,76.214,67.201,77.063z"/>
		<path fill="#070F1B" d="M92.265,73.728c0-2.158-0.055-4.389-0.581-5.991c-1.064,3.516-2.84,8.448-3.686,8.283
			c-0.017-0.002-2.338-6.938-3.016-5.989c-0.879,1.232-1.479,3.207-3.507,6.537c-1.854-7.817-3.239-6.184-4.583-3.553
			c-1.008,1.973-2.248,4.401-2.248,4.401c-1.206,0-2.169-8.878-3.168-6.986c-1.292,2.446-4.275,6.634-4.275,6.634
			c-1.525-0.85-3.735-7.176-4.736-10.931c-0.093,0.041-0.181,0.087-0.257,0.145c-3.08,2.332-2.908,8.147-2.908,11.251
			c0,1.061,0.106,2.111,0.361,3.14c0.583,2.352,1.778,4.544,3.394,6.358c0.845-1.902,3.129-4.487,4.553-5.43
			c0,0,2.046,5.222,3.134,7.668c0.841,1.892,3.271-7.396,4.286-7.396c0,0,1.043,2.43,1.892,4.402
			c1.13,2.632,0.925,3.115,3.855-3.553c1.705,3.33,2.854,4.995,3.594,6.227c0.569,0.949,0.723-6.302,0.736-6.306
			c0.568-0.131,1.578,2.297,2.403,4.884C90.472,84.666,92.265,80.239,92.265,73.728z"/>
	</g>
	<path fill="#AD9102" d="M96.535,5.801l-0.531-0.009c0.226,0.754,0.304,1.544,0.198,2.334c-0.442,3.323-3.878,5.625-7.675,5.142
		c-3.796-0.483-6.515-3.569-6.072-6.893c0.037-0.278,0.103-0.548,0.18-0.814l-0.357-0.006c-0.32,0.735-0.505,1.53-0.505,2.363
		c0,3.66,3.395,6.627,7.582,6.627c4.188,0,7.583-2.967,7.583-6.627C96.938,7.177,96.792,6.467,96.535,5.801z"/>
	<path fill="#AD9102" d="M60.096,11.564c-0.442,3.323-3.879,5.625-7.675,5.142s-6.514-3.569-6.071-6.893
		C46.387,9.535,46.452,9.265,46.529,9l-0.221-0.004c-0.24,0.653-0.375,1.349-0.375,2.073c0,3.66,3.322,6.627,7.419,6.627
		s7.419-2.967,7.419-6.627c0-0.635-0.106-1.247-0.292-1.829L59.897,9.23C60.123,9.984,60.202,10.774,60.096,11.564z"/>
	<path fill="#F9FFD5" d="M46.35,9.813c-0.443,3.323,2.275,6.409,6.071,6.893s7.232-1.819,7.675-5.142
		c0.105-0.79,0.026-1.58-0.199-2.333L46.529,9C46.452,9.265,46.387,9.535,46.35,9.813z"/>
	<ellipse transform="matrix(-0.9916 -0.1291 0.1291 -0.9916 105.3882 26.3172)" cx="53.547" cy="9.742" rx="2.363" ry="2.078"/>
	<path fill="#C6A502" d="M52.491,3.472c-2.982,0.223-5.922,2.092-6.812,5.513l0.629,0.011L46.529,9L59.897,9.23l0.581,0.009
		l0.313,0.006C59.379,5.213,56.788,3.149,52.491,3.472z"/>
	<path fill="#F9FFD5" d="M82.455,6.375c-0.442,3.323,2.276,6.409,6.072,6.893c3.797,0.483,7.232-1.819,7.675-5.142
		c0.105-0.79,0.027-1.58-0.198-2.334L82.635,5.561C82.558,5.827,82.492,6.097,82.455,6.375z"/>
	<ellipse transform="matrix(-0.9916 -0.1292 0.1292 -0.9916 177.741 24.1405)" cx="89.654" cy="6.303" rx="2.363" ry="2.078"/>
	<path fill="#C6A502" d="M88.597,0.033c-2.981,0.224-5.922,2.093-6.813,5.513l0.493,0.008l0.357,0.006l13.369,0.231l0.531,0.009
		l0.362,0.006C95.485,1.775,92.894-0.289,88.597,0.033z"/>
</g>
</svg>
