<?xml version="1.0" encoding="utf-8"?>
<!-- Generator: Adobe Illustrator 16.0.3, SVG Export Plug-In . SVG Version: 6.00 Build 0)  -->
<!DOCTYPE svg PUBLIC "-//W3C//DTD SVG 1.1//EN" "http://www.w3.org/Graphics/SVG/1.1/DTD/svg11.dtd">
<svg version="1.1" id="Layer_1" xmlns="http://www.w3.org/2000/svg" xmlns:xlink="http://www.w3.org/1999/xlink" x="0px" y="0px"
	 width="150px" height="150px" viewBox="0 0 150 150" enable-background="new 0 0 150 150" xml:space="preserve">
<g>
	<g>
		<path fill="#F0DFE3" d="M113.978,48.916c0.717,0,4.402-7.75,3.436-11.736c-0.481-1.981-1.247-3.611-1.917-4.585
			c-1.705,1.735-3.508,3.25-5.393,4.567C112.739,41.058,113.978,48.916,113.978,48.916z"/>
		<path fill="#F0DFE3" d="M96.291,57.037c-0.47-2.141-0.827-4.441-0.827-6.649c0-3.683,0.861-5.956,2.181-7.474
			c-3.052,0.833-6.217,1.354-9.464,1.623C88.156,49.299,92.197,54.447,96.291,57.037z"/>
		<path fill="#F0DFE3" d="M93.79,64.631c-0.279-0.378-1.235,3.348-1.499,5.793c1.87,0.855,3.969,1.546,6.329,2.042
			C96.974,70.186,95.973,67.588,93.79,64.631z"/>
		<path fill="#F0DFE3" d="M126.095,62.827c0,3.365-1.024,6.494-2.35,9.177c1.841-0.362,3.562-0.81,5.07-1.355
			C128.378,67.858,127.354,65.032,126.095,62.827z"/>
		<path fill="#F0DFE3" d="M110.802,73.322c-2.043-2.822-5.498-7.388-6.595-7.388c-0.59,0-2.102,3.969-2.727,7.031
			c1.971,0.263,4.104,0.402,6.419,0.402C108.816,73.367,109.795,73.352,110.802,73.322z"/>
		<path fill="#F0DFE3" d="M113.599,73.203c2.13-0.12,4.337-0.317,6.488-0.604C117.011,58.73,117.486,67.674,113.599,73.203z"/>
		<g>
			<path fill="#9E202F" d="M43.109,13.814c-5.038,0-7.856,1.169-9.556,7.848c-1.199,4.708,2.799,9.581,7.857,10.625
				c2.615-5.338,5.729-10.349,9.348-14.714C49.099,15.311,46.524,13.814,43.109,13.814z"/>
			<path fill="#9E202F" d="M31.073,30.203c-4.508,0-6.661,5.476-6.661,9.746c0,6.541,6.524,6.186,11.209,7.13
				c1.342-4.403,2.983-8.778,4.927-12.977C38.062,32.832,34.775,30.203,31.073,30.203z"/>
			<path fill="#9E202F" d="M25.14,85.989c0,3.479,3.062,6.515,5.398,6.515c0.947,0,1.717-0.312,2.417-0.686
				c-0.822-3.269-1.376-6.744-1.658-10.425C28.081,82.133,25.14,82.771,25.14,85.989z"/>
			<path fill="#9E202F" d="M27.562,54.42c-3.706,0-7.177,2.078-7.177,10.185c0,4.858,4.078,7.125,7.287,7.125
				c1.176,0,2.387-0.288,3.543-0.668c0.291-4.962,1.036-10.309,2.244-15.758C31.459,54.975,29.223,54.42,27.562,54.42z"/>
			<path fill="#9E202F" d="M30.148,101.078c0,2.361,2.691,4.213,5.125,4.213c1.031,0,1.955-0.235,2.788-0.651
				c-1.294-2.258-2.418-4.65-3.363-7.183C32.547,98.192,30.148,98.502,30.148,101.078z"/>
			<path fill="#EA3442" d="M129.615,70.347c-0.259,0.103-0.529,0.203-0.801,0.301c-1.509,0.545-3.229,0.994-5.07,1.355
				c-1.182,0.233-2.408,0.429-3.657,0.595c-2.151,0.286-4.358,0.483-6.488,0.604c-0.952,0.054-1.89,0.094-2.796,0.119
				c-1.007,0.03-1.985,0.045-2.903,0.045c-2.313,0-4.447-0.139-6.419-0.402c-0.999-0.132-1.943-0.304-2.86-0.498
				c-2.36-0.497-4.459-1.188-6.329-2.042c-11.421-5.225-14.302-16.476-16.53-25.951c4.881,0.429,3.54,0.38,8.527,0.268
				c1.31-0.03,2.605-0.098,3.893-0.205c3.249-0.267,6.412-0.79,9.464-1.623c4.43-1.207,8.617-3.068,12.459-5.751
				c1.886-1.317,3.688-2.833,5.394-4.567c0.627-0.639,1.243-1.305,1.844-2.003c-0.646-2.294-1.777-4.932-2.451-6.28
				C106.13,6.751,96.494,1.501,81.953,1.501c-12.864,0-23.247,6.481-31.195,16.072c-3.619,4.366-6.733,9.376-9.348,14.714
				c-0.294,0.601-0.58,1.206-0.86,1.814c-1.943,4.198-3.585,8.573-4.927,12.977c-0.838,2.744-1.559,5.498-2.164,8.226
				c-1.208,5.45-1.953,10.796-2.244,15.758c-0.092,1.579-0.141,3.119-0.141,4.61c0,1.964,0.082,3.864,0.225,5.723
				c0.282,3.679,0.836,7.155,1.657,10.424c0.49,1.949,1.069,3.829,1.742,5.639c0.945,2.532,2.069,4.926,3.363,7.183
				c5.778,10.071,14.958,17.384,26.854,22.108c0.736,0.291,0.994,1.117,0.994,2.291c0,2.676,0.465,7.73,0.465,11.902
				c0,4.818,1.361,8.213,8.44,7.452c2.009-0.221,4.19,0.104,5.533-0.433c2.337-0.944,1.209-5.121-2.15-5.121
				c-1.318,0-0.938-0.113-2.141-0.113c-2.986,0-2.295-3.56-2.295-8.671c0-8.735-0.979-8.555,6.586-7.636
				c13.489,1.635,18.997-6.137,18.997-3.272c0,3.215,0,7.938,0,11.125c0,6.448,0.907,12.047,7.324,12.047
				c7.531,0,8.245-1.402,8.245-3.371c0-2.204-1.381-3.219-3.624-3.219c-1.354,0-2.809,0.332-3.947,0.332
				c-2.873,0-0.285-16.487,0.25-19.163C107.672,120.486,129.615,113.308,129.615,70.347z"/>
		</g>
	</g>
	<ellipse fill="#9E202F" cx="94.407" cy="35.357" rx="1.063" ry="1.391"/>
	<ellipse fill="#9E202F" cx="100.543" cy="33.966" rx="1.065" ry="1.39"/>
	<ellipse fill="#FFE0A8" cx="82.217" cy="27.461" rx="7.689" ry="7.896"/>
	<ellipse fill="#FFE0A8" cx="100.543" cy="23.872" rx="7.529" ry="7.282"/>
	<ellipse cx="85.325" cy="25.667" rx="1.802" ry="1.794"/>
	<ellipse cx="105.208" cy="22.127" rx="1.555" ry="1.744"/>
	<path fill="#A51E34" d="M72.377,105.291c0,2.994-3.738,4.727-6.474,4.727c-2.736,0-4.953-2.427-4.953-5.419
		s2.217-6.868,4.953-6.868C68.638,97.73,72.377,102.299,72.377,105.291z"/>
	<path fill="#7C1A2B" d="M89.528,110.018c0,3.562-3.003,7.494-6.444,7.494s-7.368-3.837-7.368-7.4c0-3.563,2.792-6.448,6.232-6.448
		S89.528,106.458,89.528,110.018z"/>
	<path fill="#C42C3E" d="M82.217,99.415c0,1.081-1.038,1.958-2.316,1.958s-2.314-0.879-2.314-1.958c0-1.083,1.036-2.626,2.314-2.626
		S82.217,98.332,82.217,99.415z"/>
	<path fill="#ED6E7D" d="M100.543,98.083c0,3.084-2.381,5.58-5.317,5.58s-5.32-2.497-5.32-5.58c0-3.079,2.63-6.287,5.564-6.287
		C98.409,91.796,100.543,95.003,100.543,98.083z"/>
	<path fill="#A51E34" d="M106.14,112.963c0,1.574-1.253,3.597-2.797,3.597c-1.547,0-3.504-2.068-3.504-3.644
		c0-1.574,1.957-2.805,3.504-2.805C104.887,110.111,106.14,111.389,106.14,112.963z"/>
	<path fill="#F94B68" d="M82.622,76.528c0,0.843-1.358,1.529-2.202,1.529c-0.842,0-1.526-0.686-1.526-1.529S79.577,75,80.42,75
		C81.264,75,82.622,75.685,82.622,76.528z"/>
	<ellipse fill="#E0142D" cx="71.323" cy="66.01" rx="1.589" ry="1.405"/>
	<path fill="#A51E34" d="M67.865,54.787c0,0.67-0.438,1.215-0.98,1.215c-0.542,0-1.659-0.545-1.659-1.215
		c0-0.672,1.117-1.215,1.659-1.215C67.426,53.572,67.865,54.115,67.865,54.787z"/>
	<path fill="#7C1A2B" d="M63.751,60.753c0,1.282-1.48,3.222-2.616,3.222c-1.135,0-2.614-1.939-2.614-3.222
		c0-1.283,0.92-2.322,2.056-2.322C61.711,58.431,63.751,59.47,63.751,60.753z"/>
	<path fill="#C42C3E" d="M51.557,74.198c0,2.319-2.718,5.322-4.859,5.322c-2.14,0-3.69-3.345-3.69-5.667s1.734-4.204,3.875-4.204
		C49.022,69.651,51.557,71.877,51.557,74.198z"/>
	<path fill="#892234" d="M71.323,80.333c0,2.493-2.685,3.705-5.42,3.705c-2.736,0-4.953-2.023-4.953-4.518
		c0-2.497,2.217-4.938,4.953-4.938C68.638,74.583,71.323,77.836,71.323,80.333z"/>
	<ellipse fill="#89222F" cx="56.744" cy="81.778" rx="1.777" ry="2.26"/>
	<path fill="#F94B68" d="M55.716,95.906c0,2.531-2.073,5.467-4.959,5.467c-2.887,0-5.493-2.936-5.493-5.467
		c0-2.527,2.341-4.579,5.227-4.579S55.716,93.379,55.716,95.906z"/>
	<path fill="#E0142D" d="M56.115,107.775c0,1.754-1.51,3.18-2.879,3.18c-1.37,0-2.479-1.426-2.479-3.18s1.109-3.177,2.479-3.177
		C54.606,104.599,56.115,106.021,56.115,107.775z"/>
	<ellipse fill="#C42C3E" cx="64.758" cy="118.428" rx="2.125" ry="1.869"/>
	<path fill="#89222F" d="M72.913,126.093c0,0.516-0.711,0.936-1.59,0.936c-0.877,0-1.589-0.42-1.589-0.937
		c0-0.515,0.711-1.938,1.589-1.938C72.201,124.154,72.913,125.577,72.913,126.093z"/>
	<path fill="#892234" d="M77.586,119.363c0,0.515-0.706,1.619-1.577,1.619c-0.872,0-1.577-1.104-1.577-1.619
		c0-0.514,0.707-0.935,1.577-0.935C76.88,118.427,77.586,118.849,77.586,119.363z"/>
	<path fill="#7C1A2B" d="M85.324,87.684c0,2.013-2.85,4.82-5.424,4.82c-2.572,0-3.892-2.808-3.892-4.82
		c0-2.012,2.083-3.646,4.658-3.646C83.241,84.038,85.324,85.672,85.324,87.684z"/>
	<ellipse fill="#ED6E7D" cx="67.812" cy="91.795" rx="3.511" ry="4.111"/>
	<path fill="#ED6E7D" d="M53.236,46.002c0,1.084-1.202,2.914-2.686,2.914s-2.686-1.83-2.686-2.914s1.202-1.963,2.686-1.963
		C52.035,44.039,53.236,44.918,53.236,46.002z"/>
	<path fill="#F94B68" d="M66.883,28.832c0,0.757-0.743,1.928-1.658,1.928c-0.916,0-1.659-1.171-1.659-1.928
		c0-0.756,0.743-1.37,1.659-1.37C66.14,27.461,66.883,28.076,66.883,28.832z"/>
	<path fill="#ED6E7D" d="M110.802,85.494c0,0.804-0.611,2.189-1.366,2.189c-0.756,0-1.364-1.386-1.364-2.189
		s0.608-1.456,1.364-1.456C110.19,84.038,110.802,84.69,110.802,85.494z"/>
	<path fill="#E0142D" d="M97.645,111.888c0,1.032-0.94,3.927-2.419,3.927c-1.481,0-3.616-1.864-3.616-2.896
		c0-1.035,1.88-2.898,3.36-2.898C96.448,110.018,97.645,110.854,97.645,111.888z"/>
	<path fill="#C42C3E" d="M104.074,87.454c0,0.355,0,0.643-0.678,0.643c-0.374,0-0.678-0.287-0.678-0.643
		c0-0.354,0.306-0.64,0.678-0.64C103.771,86.814,104.074,87.1,104.074,87.454z"/>
	<path fill="#E0142D" d="M81.545,82.682c0,0.311-0.555,0.565-1.239,0.565c-0.683,0-1.237-0.255-1.237-0.565
		c0-0.308,0.554-1.202,1.237-1.202C80.99,81.479,81.545,82.374,81.545,82.682z"/>
	<path fill="#660713" d="M115.032,93.494c0,0.709-0.633,1.895-1.418,1.895s-1.419-1.186-1.419-1.895
		c0-0.711,0.634-1.285,1.419-1.285C114.398,92.211,115.032,92.783,115.032,93.494z"/>
</g>
</svg>
