<?xml version="1.0" encoding="utf-8"?>
<!-- Generator: Adobe Illustrator 16.0.3, SVG Export Plug-In . SVG Version: 6.00 Build 0)  -->
<!DOCTYPE svg PUBLIC "-//W3C//DTD SVG 1.1//EN" "http://www.w3.org/Graphics/SVG/1.1/DTD/svg11.dtd">
<svg version="1.1" id="Layer_1" xmlns="http://www.w3.org/2000/svg" xmlns:xlink="http://www.w3.org/1999/xlink" x="0px" y="0px"
	 width="150px" height="150px" viewBox="0 0 150 150" enable-background="new 0 0 150 150" xml:space="preserve">
<g>
	<g>
		<path fill="#F0DFE3" d="M114.773,48.384c0.732,0,4.492-7.909,3.504-11.977c-0.49-2.021-1.27-3.684-1.955-4.679
			c-1.74,1.77-3.578,3.317-5.502,4.661C113.51,40.364,114.773,48.384,114.773,48.384z"/>
		<path fill="#F0DFE3" d="M96.725,56.671c-0.479-2.185-0.842-4.533-0.842-6.786c0-3.758,0.879-6.078,2.225-7.626
			c-3.115,0.85-6.346,1.382-9.658,1.656C88.426,48.774,92.549,54.028,96.725,56.671z"/>
		<path fill="#F0DFE3" d="M94.174,64.42c-0.285-0.387-1.262,3.415-1.531,5.91c1.908,0.873,4.051,1.578,6.461,2.085
			C97.422,70.088,96.4,67.437,94.174,64.42z"/>
		<path fill="#F0DFE3" d="M127.139,62.578c0,3.434-1.045,6.627-2.398,9.365c1.877-0.37,3.633-0.826,5.174-1.383
			C129.469,67.712,128.424,64.828,127.139,62.578z"/>
		<path fill="#F0DFE3" d="M111.531,73.288c-2.084-2.881-5.609-7.539-6.729-7.539c-0.602,0-2.143,4.05-2.783,7.175
			c2.012,0.267,4.189,0.409,6.551,0.409C109.508,73.333,110.504,73.318,111.531,73.288z"/>
		<path fill="#F0DFE3" d="M114.387,73.166c2.174-0.123,4.426-0.323,6.621-0.615C117.869,58.398,118.354,67.525,114.387,73.166z"/>
		<g>
			<path fill="#9E202F" d="M42.458,12.565c-5.141,0-8.017,1.194-9.751,8.008c-1.223,4.804,2.857,9.776,8.017,10.842
				c2.668-5.447,5.846-10.56,9.538-15.014C48.57,14.092,45.942,12.565,42.458,12.565z"/>
			<path fill="#9E202F" d="M30.176,29.288c-4.601,0-6.797,5.587-6.797,9.945c0,6.674,6.657,6.312,11.438,7.275
				c1.37-4.493,3.045-8.957,5.028-13.242C37.307,31.97,33.954,29.288,30.176,29.288z"/>
			<path fill="#9E202F" d="M24.121,86.215c0,3.549,3.125,6.646,5.509,6.646c0.967,0,1.752-0.317,2.466-0.7
				c-0.838-3.336-1.404-6.882-1.691-10.635C27.122,82.279,24.121,82.93,24.121,86.215z"/>
			<path fill="#9E202F" d="M26.593,54c-3.782,0-7.324,2.12-7.324,10.393c0,4.958,4.161,7.27,7.436,7.27
				c1.2,0,2.435-0.294,3.615-0.681c0.296-5.063,1.057-10.519,2.289-16.079C30.57,54.566,28.288,54,26.593,54z"/>
			<path fill="#9E202F" d="M29.232,101.611c0,2.409,2.747,4.298,5.229,4.298c1.052,0,1.995-0.241,2.844-0.666
				c-1.32-2.301-2.466-4.744-3.431-7.329C31.68,98.667,29.232,98.983,29.232,101.611z"/>
			<path fill="#EA3442" d="M130.73,70.252c-0.262,0.106-0.539,0.207-0.816,0.307c-1.541,0.557-3.297,1.014-5.174,1.383
				c-1.207,0.237-2.457,0.438-3.732,0.608c-2.195,0.292-4.447,0.492-6.621,0.615c-0.973,0.055-1.928,0.096-2.855,0.122
				c-1.027,0.03-2.023,0.045-2.961,0.045c-2.361,0-4.539-0.142-6.551-0.409c-1.018-0.135-1.982-0.311-2.916-0.508
				c-2.41-0.507-4.553-1.213-6.461-2.085C80.99,64.998,78.051,53.519,75.775,43.85c4.981,0.438,3.614,0.388,8.704,0.273
				c1.336-0.03,2.658-0.1,3.971-0.208c3.313-0.273,6.543-0.806,9.658-1.656c4.52-1.232,8.793-3.131,12.713-5.869
				c1.924-1.344,3.762-2.891,5.502-4.661c0.641-0.652,1.27-1.331,1.883-2.044c-0.662-2.341-1.814-5.032-2.502-6.407
				C106.766,5.357,96.934,0,82.094,0c-13.125,0-23.72,6.613-31.832,16.401c-3.692,4.455-6.87,9.567-9.538,15.014
				c-0.3,0.613-0.591,1.231-0.878,1.851c-1.982,4.285-3.658,8.749-5.028,13.242c-0.854,2.799-1.59,5.61-2.208,8.395
				c-1.232,5.56-1.993,11.016-2.289,16.079c-0.094,1.611-0.144,3.183-0.144,4.705c0,2.002,0.083,3.944,0.229,5.84
				c0.288,3.753,0.854,7.299,1.691,10.635c0.5,1.99,1.091,3.909,1.778,5.753c0.965,2.585,2.111,5.028,3.431,7.329
				c5.897,10.279,15.264,17.743,27.404,22.562c0.751,0.297,1.013,1.139,1.013,2.336c0,2.732,0.475,7.889,0.475,12.146
				c0,4.918,1.389,8.382,8.612,7.604c2.052-0.223,4.277,0.108,5.646-0.441c2.387-0.962,1.236-5.225-2.195-5.225
				c-1.344,0-0.955-0.115-2.184-0.115c-3.046,0-2.34-3.633-2.34-8.849c0-8.913-0.999-8.728,6.719-7.792
				c13.764,1.67,19.387-6.262,19.387-3.339c0,3.282,0,8.101,0,11.354c0,6.579,0.924,12.293,7.473,12.293
				c7.684,0,8.412-1.433,8.412-3.442c0-2.248-1.41-3.284-3.697-3.284c-1.383,0-2.867,0.339-4.029,0.339
				c-2.932,0-0.291-16.825,0.256-19.553C108.34,121.416,130.73,114.09,130.73,70.252z"/>
		</g>
	</g>
	<ellipse fill="#9E202F" cx="94.803" cy="34.547" rx="1.086" ry="1.42"/>
	<ellipse fill="#9E202F" cx="101.065" cy="33.128" rx="1.085" ry="1.419"/>
	<ellipse fill="#FFE0A8" cx="82.363" cy="26.491" rx="7.848" ry="8.057"/>
	<ellipse fill="#FFE0A8" cx="101.065" cy="22.828" rx="7.681" ry="7.431"/>
	<ellipse cx="85.536" cy="24.66" rx="1.837" ry="1.831"/>
	<ellipse cx="105.823" cy="21.048" rx="1.587" ry="1.78"/>
	<path fill="#A51E34" d="M72.323,105.909c0,3.056-3.814,4.824-6.605,4.824c-2.792,0-5.054-2.477-5.054-5.531
		c0-3.054,2.263-7.009,5.054-7.009C68.508,98.193,72.323,102.855,72.323,105.909z"/>
	<path fill="#7C1A2B" d="M89.824,110.733c0,3.634-3.064,7.646-6.576,7.646s-7.518-3.916-7.518-7.55c0-3.635,2.848-6.58,6.359-6.58
		S89.824,107.099,89.824,110.733z"/>
	<path fill="#C42C3E" d="M82.363,99.913c0,1.104-1.059,1.999-2.363,1.999s-2.361-0.896-2.361-1.999c0-1.104,1.057-2.678,2.361-2.678
		S82.363,98.809,82.363,99.913z"/>
	<path fill="#ED6E7D" d="M101.064,98.555c0,3.145-2.43,5.694-5.426,5.694c-2.998,0-5.428-2.55-5.428-5.694s2.682-6.417,5.678-6.417
		C98.887,92.138,101.064,95.41,101.064,98.555z"/>
	<path fill="#A51E34" d="M106.775,113.737c0,1.606-1.279,3.671-2.855,3.671s-3.574-2.111-3.574-3.718s1.998-2.861,3.574-2.861
		S106.775,112.131,106.775,113.737z"/>
	<path fill="#F94B68" d="M82.777,76.56c0,0.861-1.385,1.559-2.246,1.559c-0.859,0-1.559-0.697-1.559-1.559
		c0-0.861,0.699-1.56,1.559-1.56C81.393,75,82.777,75.699,82.777,76.56z"/>
	<ellipse fill="#E0142D" cx="71.248" cy="65.826" rx="1.621" ry="1.434"/>
	<path fill="#A51E34" d="M67.72,54.374c0,0.685-0.448,1.24-1.001,1.24c-0.553,0-1.692-0.555-1.692-1.24
		c0-0.685,1.139-1.239,1.692-1.239C67.271,53.135,67.72,53.689,67.72,54.374z"/>
	<path fill="#7C1A2B" d="M63.521,60.462c0,1.308-1.51,3.287-2.669,3.287c-1.158,0-2.668-1.979-2.668-3.287s0.939-2.369,2.098-2.369
		C61.44,58.093,63.521,59.154,63.521,60.462z"/>
	<path fill="#C42C3E" d="M51.077,74.182c0,2.368-2.773,5.429-4.957,5.429c-2.184,0-3.766-3.412-3.766-5.781
		c0-2.369,1.77-4.29,3.954-4.29C48.491,69.541,51.077,71.813,51.077,74.182z"/>
	<path fill="#892234" d="M71.248,80.441c0,2.546-2.74,3.781-5.531,3.781c-2.792,0-5.054-2.064-5.054-4.611s2.263-5.038,5.054-5.038
		C68.508,74.574,71.248,77.894,71.248,80.441z"/>
	<ellipse fill="#89222F" cx="56.372" cy="81.916" rx="1.812" ry="2.307"/>
	<path fill="#F94B68" d="M55.322,96.334c0,2.581-2.116,5.578-5.061,5.578s-5.604-2.997-5.604-5.578c0-2.58,2.388-4.673,5.333-4.673
		C52.935,91.661,55.322,93.754,55.322,96.334z"/>
	<path fill="#E0142D" d="M55.73,108.444c0,1.791-1.541,3.243-2.938,3.243c-1.398,0-2.531-1.452-2.531-3.243
		c0-1.79,1.133-3.242,2.531-3.242C54.19,105.202,55.73,106.654,55.73,108.444z"/>
	<ellipse fill="#C42C3E" cx="64.549" cy="119.315" rx="2.169" ry="1.907"/>
	<path fill="#89222F" d="M72.87,127.136c0,0.527-0.726,0.954-1.622,0.954c-0.895,0-1.621-0.427-1.621-0.954
		c0-0.526,0.726-1.979,1.621-1.979C72.144,125.157,72.87,126.609,72.87,127.136z"/>
	<path fill="#892234" d="M77.639,120.27c0,0.526-0.721,1.651-1.609,1.651c-0.89,0-1.61-1.125-1.61-1.651s0.721-0.954,1.61-0.954
		C76.918,119.315,77.639,119.743,77.639,120.27z"/>
	<path fill="#7C1A2B" d="M85.535,87.942c0,2.053-2.908,4.919-5.535,4.919c-2.625,0-3.971-2.866-3.971-4.919
		c0-2.054,2.127-3.72,4.752-3.72C83.408,84.223,85.535,85.889,85.535,87.942z"/>
	<ellipse fill="#ED6E7D" cx="67.665" cy="92.138" rx="3.583" ry="4.196"/>
	<path fill="#ED6E7D" d="M52.792,45.41c0,1.106-1.227,2.974-2.741,2.974c-1.513,0-2.74-1.868-2.74-2.974s1.227-2.003,2.74-2.003
		C51.566,43.407,52.792,44.304,52.792,45.41z"/>
	<path fill="#F94B68" d="M66.718,27.889c0,0.772-0.758,1.968-1.692,1.968c-0.935,0-1.693-1.196-1.693-1.968s0.758-1.398,1.693-1.398
		C65.96,26.491,66.718,27.117,66.718,27.889z"/>
	<path fill="#ED6E7D" d="M111.531,85.708c0,0.821-0.623,2.234-1.393,2.234s-1.393-1.413-1.393-2.234c0-0.82,0.623-1.485,1.393-1.485
		S111.531,84.888,111.531,85.708z"/>
	<path fill="#E0142D" d="M98.107,112.641c0,1.053-0.961,4.005-2.469,4.005c-1.51,0-3.689-1.902-3.689-2.955
		c0-1.055,1.918-2.957,3.428-2.957C96.885,110.733,98.107,111.587,98.107,112.641z"/>
	<path fill="#C42C3E" d="M104.668,87.709c0,0.361,0,0.654-0.691,0.654c-0.383,0-0.693-0.293-0.693-0.654
		c0-0.363,0.311-0.655,0.693-0.655C104.357,87.054,104.668,87.346,104.668,87.709z"/>
	<path fill="#E0142D" d="M81.68,82.84c0,0.316-0.566,0.574-1.266,0.574c-0.697,0-1.264-0.258-1.264-0.574s0.566-1.229,1.264-1.229
		C81.113,81.611,81.68,82.523,81.68,82.84z"/>
	<path fill="#660713" d="M115.85,93.872c0,0.724-0.648,1.933-1.447,1.933c-0.801,0-1.449-1.209-1.449-1.933
		c0-0.725,0.648-1.311,1.449-1.311C115.201,92.562,115.85,93.147,115.85,93.872z"/>
</g>
</svg>
