<?xml version="1.0" encoding="utf-8"?>
<!-- Generator: Adobe Illustrator 16.0.3, SVG Export Plug-In . SVG Version: 6.00 Build 0)  -->
<!DOCTYPE svg PUBLIC "-//W3C//DTD SVG 1.1//EN" "http://www.w3.org/Graphics/SVG/1.1/DTD/svg11.dtd">
<svg version="1.1" id="Layer_1" xmlns="http://www.w3.org/2000/svg" xmlns:xlink="http://www.w3.org/1999/xlink" x="0px" y="0px"
	 width="150px" height="150px" viewBox="0 0 150 150" enable-background="new 0 0 150 150" xml:space="preserve">
<g>
	<g>
		<g>
			<path fill="#B52C02" d="M38.558,109.003c-3.471-0.444-9.96-6.745-8.229-3.022c0.434,0.934,0.624,1.843,0.624,2.729
				c0,2.033-1.005,3.941-2.35,5.743C32.056,113.284,35.568,111.427,38.558,109.003z"/>
			<path fill="#B52C02" d="M29.846,0C11.567,0,35.477-0.008,43.49,15.017c6.24-2.549,13.755-4.017,21.956-4.634
				C57.23,3.945,41.9,0,29.846,0z"/>
			<path fill="#B52C02" d="M46.43,93.07c-2.388-0.383-5.02-0.869-7.462-0.869c-2.272,0-4.378,0.421-5.964,1.738
				c7.001,1.421,7.609,7.537,7.609,12.725c0,0.189-0.013,0.356-0.029,0.521c3.497-3.469,5.887-7.823,5.887-12.798
				C46.472,93.944,46.45,93.508,46.43,93.07z"/>
			<path fill="#B52C02" d="M25.924,36.219c-0.006,0-0.011,0-0.016,0c-10.507,0-20.496,6.319-21.448,19.534
				c4.867-2.951,10.887-4.385,16.871-4.385c2.374,0,4.681,0.08,6.879,0.306c-1.492-3.975-2.446-8.108-2.446-12.511
				C25.764,38.146,25.829,37.173,25.924,36.219z"/>
			<path fill="#B52C02" d="M36.112,18.991C32.086,16.88,26.073,15.5,21.408,15.5C15.033,15.5,4.771,19.644,0,23.758
				c10.055,0.221,20.72,0.861,27.875,4.961C29.643,24.782,32.466,21.57,36.112,18.991z"/>
			<path fill="#B52C02" d="M24.097,115.588c-0.945-2.002-0.893-4.438-3.134-6.167c-0.642,2.309-2.417,4.491-4.331,5.902
				c1.313,0.341,2.715,0.545,4.228,0.545C21.884,115.868,22.973,115.77,24.097,115.588z"/>
			<path fill="#B52C02" d="M11.73,107.611c-1.764-0.248-3.167,0.282-4.032,1.262c0.8,1.219,1.764,2.332,2.89,3.3
				C10.93,109.916,11.73,107.611,11.73,107.611z"/>
			<path fill="#B52C02" d="M32.282,82.129c0,0,6.37,0.36,12.327,1.663c-1.074-3.167-2.536-6.237-4.172-9.271
				C36.454,75.989,32.282,78.413,32.282,82.129z"/>
			<path fill="#B52C02" d="M22.61,74.053c0,0,9.683-3.341,15.333-3.956c-1.708-2.924-3.481-5.841-5.132-8.798
				C25.475,64.317,22.208,70.124,22.61,74.053z"/>
			<path fill="#E23F00" d="M40.585,107.185c-0.642,0.637-1.318,1.243-2.027,1.818C39.65,109.143,40.44,108.699,40.585,107.185z"/>
			<path fill="#E23F00" d="M147.51,145.071c-4.609-1.893-13.634-2.189-13.071-3.246c6.286-11.855,6.101-36.002,6.101-36.401
				c0-19.992-7.706-38.483-7.706-54.449c0-2.904,0.105-5.809,0.105-8.714c0-24.137-29.563-32.231-57.702-32.231
				c-3.342,0-6.616,0.114-9.79,0.353C57.246,11,49.73,12.468,43.49,15.017c-2.721,1.111-5.195,2.429-7.378,3.974
				c-3.646,2.58-6.469,5.791-8.238,9.728c-1.013,2.255-1.674,4.751-1.95,7.5c-0.095,0.954-0.16,1.928-0.16,2.944
				c0,4.403,0.954,8.537,2.446,12.511c1.238,3.297,2.848,6.485,4.601,9.625c1.651,2.958,3.424,5.874,5.132,8.798
				c0.858,1.47,1.695,2.943,2.494,4.424c1.636,3.034,3.098,6.104,4.172,9.271c1.015,2.992,1.675,6.069,1.821,9.278
				c0.02,0.438,0.042,0.874,0.042,1.316c0,4.975-2.39,9.329-5.887,12.798c-0.145,1.515-0.935,1.958-2.027,1.818
				c-2.99,2.424-6.502,4.281-9.955,5.449c-1.533,0.519-3.05,0.9-4.506,1.136c-1.125,0.182-2.213,0.28-3.238,0.28
				c-1.513,0-2.915-0.204-4.228-0.545c-2.351-0.609-4.372-1.711-6.043-3.15c-1.125-0.968-2.09-2.081-2.89-3.3
				c-1.832-2.787-2.806-6.083-2.806-9.291c0-0.292,0.007-0.581,0.023-0.869c-2.192,4.039-3.575,8.63-3.575,13.106
				c0,20.539,31.16,25.579,34.1,25.658c12.282,0.331,16.734-6.163,16.734-6.163c0.047,0,0.075,0.019,0.075,0.056
				c4.439,5.801,7.218,9.448,8.196,12.177c2.613,7.289-3.29,5.925,8.016,5.786c2.178-0.025,2.506-0.054,4.723-0.054
				c8.259,0,7.511-0.214,7.851-0.985c0,0,0.987-2.285-4.255-4.102c-3.187-1.104-4.846-0.43-7.75-1.583
				c-1.165-0.462,0.828-2.455,0.828-8.589c0-7.168,7.11-0.362,22.274-0.362c8.825,0,20.63-3.18,24.798-3.18
				c8.706,0,10.658,7.35,10.459,14.095c-0.056,1.912-1.056,2.983-0.988,4.426c0.056,1.18,16.856,1.21,21.869,0.643
				C150.968,149.337,150.354,146.237,147.51,145.071z"/>
		</g>
		<g>
			<path fill="#070F1B" d="M118.849,58.465c-0.838,3.646-3.643,9.508-4.66,9.508c-0.179,0-0.346-0.095-0.456-0.353
				c-8.723-20.183-7.426,0.573-12.859,0.573c0,0-4.628-6.819-6.787-6.819c-4.256,0-6.929,17.504-9.543,1.432
				c-0.114-0.712-0.185-1.339-0.217-1.905c-4.599,4.23-7.713,10.592-7.713,19.442c0,11.793,1.985,11.093,4.839,11.093
				c1.965,0,4.92-0.863,8.712-1.826c-0.393-1.614-0.563-3.278-0.563-4.948c0-10.956,3.231,1.326,7.75,1.326
				c5.418,0,10.503-7.016,10.503-7.016c8.702,0,4.858,18.924,14.577-5.062c2.625,4.049,4.951,11.41,5.486,16.21
				c0.079,0.014,0.149,0.027,0.226,0.042c0.118,0.021,0.235,0.03,0.348,0.03c1.579,0,2.755-1.923,4.001-3.127
				c0.021-0.569,0.03-1.142,0.03-1.714C132.521,71.549,126.673,63.022,118.849,58.465z"/>
			<path fill="#F9FFD5" d="M94.086,61.374c2.159,0,6.787,6.819,6.787,6.819c5.434,0,4.137-20.756,12.859-0.573
				c0.11,0.258,0.277,0.353,0.456,0.353c1.018,0,3.822-5.862,4.66-9.508c-5.008-2.917-10.821-4.214-16.438-4.214
				c-6.407,0-13.113,2.077-18.085,6.649c0.032,0.566,0.103,1.193,0.217,1.905C87.157,78.878,89.83,61.374,94.086,61.374z"/>
			<path fill="#F9FFD5" d="M107.854,78.972c0,0-5.085,7.016-10.503,7.016c-4.519,0-7.75-12.282-7.75-1.326
				c0,1.67,0.171,3.334,0.563,4.948c4.785-1.214,10.903-2.59,18.057-2.59c8.164,0,11.604,1.65,19.696,3.101
				c-0.535-4.801-2.861-12.161-5.486-16.21C112.712,97.896,116.556,78.972,107.854,78.972z"/>
		</g>
		<ellipse fill="#FFE0A8" cx="85.83" cy="40.113" rx="11.223" ry="7.396"/>
		<ellipse fill="#FFE0A8" cx="112.061" cy="35.984" rx="15.944" ry="10.822"/>
	</g>
	<ellipse cx="90.039" cy="38.5" rx="3.264" ry="2.182"/>
	<ellipse cx="109.929" cy="36.389" rx="3.481" ry="2.316"/>
</g>
</svg>
