<?xml version="1.0" encoding="utf-8"?>
<!-- Generator: Adobe Illustrator 16.0.3, SVG Export Plug-In . SVG Version: 6.00 Build 0)  -->
<!DOCTYPE svg PUBLIC "-//W3C//DTD SVG 1.1//EN" "http://www.w3.org/Graphics/SVG/1.1/DTD/svg11.dtd">
<svg version="1.1" id="Layer_1" xmlns="http://www.w3.org/2000/svg" xmlns:xlink="http://www.w3.org/1999/xlink" x="0px" y="0px"
	 width="150px" height="150px" viewBox="0 0 150 150" enable-background="new 0 0 150 150" xml:space="preserve">
<g>
	<g>
		<g>
			<path fill="#B52C02" d="M39.044,108.55c-3.425-0.438-9.827-6.655-8.119-2.982c0.428,0.922,0.616,1.819,0.616,2.693
				c0,2.006-0.992,3.888-2.319,5.667C32.628,112.774,36.094,110.94,39.044,108.55z"/>
			<path fill="#B52C02" d="M30.448,1C12.413,1,36.004,0.992,43.91,15.817c6.157-2.516,13.571-3.964,21.663-4.573
				C57.467,4.892,42.341,1,30.448,1z"/>
			<path fill="#B52C02" d="M46.811,92.83c-2.356-0.379-4.953-0.857-7.363-0.857c-2.242,0-4.32,0.415-5.884,1.715
				c6.908,1.4,7.507,7.436,7.507,12.555c0,0.187-0.013,0.351-0.028,0.514c3.45-3.423,5.809-7.719,5.809-12.627
				C46.853,93.691,46.831,93.262,46.811,92.83z"/>
			<path fill="#B52C02" d="M26.578,36.736c-0.006,0-0.011,0-0.016,0C16.195,36.736,6.34,42.971,5.4,56.01
				c4.802-2.912,10.742-4.327,16.646-4.327c2.343,0,4.619,0.079,6.787,0.302c-1.472-3.921-2.413-8-2.413-12.344
				C26.42,38.637,26.485,37.677,26.578,36.736z"/>
			<path fill="#B52C02" d="M36.63,19.738c-3.972-2.083-9.905-3.444-14.508-3.444c-6.29,0-16.416,4.088-21.123,8.147
				c9.921,0.218,20.444,0.85,27.504,4.895C30.248,25.452,33.033,22.282,36.63,19.738z"/>
			<path fill="#B52C02" d="M24.776,115.047c-0.933-1.975-0.881-4.379-3.093-6.085c-0.633,2.278-2.385,4.431-4.273,5.824
				c1.296,0.336,2.679,0.537,4.172,0.537C22.592,115.323,23.667,115.227,24.776,115.047z"/>
			<path fill="#B52C02" d="M12.573,107.176c-1.741-0.244-3.125,0.278-3.978,1.246c0.789,1.202,1.74,2.301,2.852,3.255
				C11.784,109.451,12.573,107.176,12.573,107.176z"/>
			<path fill="#B52C02" d="M32.852,82.033c0,0,6.285,0.356,12.163,1.642c-1.06-3.124-2.502-6.153-4.116-9.147
				C36.968,75.976,32.852,78.368,32.852,82.033z"/>
			<path fill="#B52C02" d="M23.308,74.066c0,0,9.554-3.296,15.129-3.903c-1.686-2.885-3.435-5.763-5.063-8.681
				C26.135,64.459,22.912,70.189,23.308,74.066z"/>
			<path fill="#E23F00" d="M41.044,106.756c-0.634,0.629-1.3,1.227-2,1.794C40.121,108.688,40.901,108.25,41.044,106.756z"/>
			<path fill="#E23F00" d="M146.543,144.137c-4.548-1.868-13.452-2.16-12.896-3.202c6.202-11.696,6.02-35.521,6.02-35.917
				c0-19.725-7.604-37.969-7.604-53.722c0-2.866,0.104-5.732,0.104-8.598c0-23.815-29.17-31.801-56.933-31.801
				c-3.298,0-6.528,0.113-9.66,0.348c-8.091,0.609-15.507,2.057-21.664,4.573c-2.685,1.096-5.126,2.396-7.28,3.921
				c-3.598,2.545-6.383,5.714-8.128,9.598c-1,2.225-1.652,4.688-1.924,7.4c-0.093,0.941-0.158,1.902-0.158,2.905
				c0,4.344,0.941,8.424,2.413,12.344c1.222,3.253,2.811,6.399,4.54,9.497c1.629,2.919,3.378,5.796,5.063,8.681
				c0.846,1.45,1.673,2.904,2.461,4.365c1.614,2.994,3.057,6.023,4.116,9.147c1.001,2.953,1.653,5.989,1.797,9.155
				c0.02,0.432,0.042,0.861,0.042,1.298c0,4.909-2.358,9.204-5.809,12.626c-0.143,1.496-0.923,1.934-2,1.795
				c-2.95,2.391-6.416,4.225-9.822,5.377c-1.513,0.511-3.009,0.888-4.446,1.12c-1.11,0.181-2.184,0.276-3.195,0.276
				c-1.493,0-2.876-0.201-4.172-0.537c-2.319-0.602-4.313-1.688-5.962-3.109c-1.11-0.954-2.063-2.053-2.852-3.255
				c-1.808-2.75-2.769-6.003-2.769-9.168c0-0.288,0.007-0.573,0.022-0.857c-2.163,3.985-3.527,8.515-3.527,12.933
				c0,20.265,30.745,25.236,33.646,25.315c12.119,0.325,16.511-6.082,16.511-6.082c0.047,0,0.074,0.02,0.074,0.056
				c4.38,5.724,7.122,9.322,8.087,12.015c2.578,7.192-3.246,5.846,7.909,5.709c2.149-0.024,2.473-0.054,4.661-0.054
				c8.149,0,7.411-0.21,7.747-0.971c0,0,0.973-2.255-4.199-4.047c-3.145-1.091-4.781-0.426-7.646-1.563
				c-1.149-0.454,0.817-2.423,0.817-8.474c0-7.072,7.016-0.357,21.977-0.357c8.708,0,20.354-3.139,24.468-3.139
				c8.591,0,10.516,7.253,10.319,13.908c-0.055,1.887-1.042,2.943-0.976,4.367c0.057,1.164,16.632,1.193,21.578,0.634
				C149.955,148.346,149.349,145.287,146.543,144.137z"/>
		</g>
		<g>
			<path fill="#070F1B" d="M118.266,58.686c-0.827,3.597-3.596,9.381-4.599,9.381c-0.177,0-0.342-0.094-0.45-0.348
				c-8.607-19.915-7.328,0.565-12.688,0.565c0,0-4.565-6.728-6.695-6.728c-4.199,0-6.837,17.271-9.416,1.413
				c-0.112-0.703-0.183-1.321-0.215-1.88c-4.536,4.174-7.61,10.451-7.61,19.184c0,11.635,1.959,10.944,4.775,10.944
				c1.939,0,4.854-0.851,8.596-1.803c-0.389-1.592-0.557-3.232-0.557-4.881c0-10.81,3.188,1.309,7.646,1.309
				c5.347,0,10.365-6.922,10.365-6.922c8.584,0,4.792,18.672,14.381-4.995c2.59,3.995,4.886,11.259,5.414,15.994
				c0.077,0.014,0.146,0.026,0.223,0.041c0.116,0.021,0.232,0.028,0.344,0.028c1.557,0,2.718-1.896,3.947-3.084
				c0.021-0.562,0.03-1.128,0.03-1.691C131.755,71.595,125.983,63.182,118.266,58.686z"/>
			<path fill="#F9FFD5" d="M93.832,61.556c2.13,0,6.695,6.728,6.695,6.728c5.361,0,4.082-20.479,12.689-0.565
				c0.107,0.254,0.272,0.348,0.448,0.348c1.005,0,3.771-5.784,4.599-9.381c-4.941-2.878-10.677-4.158-16.219-4.158
				c-6.321,0-12.939,2.05-17.845,6.561c0.032,0.559,0.103,1.177,0.215,1.88C86.995,78.827,89.633,61.556,93.832,61.556z"/>
			<path fill="#F9FFD5" d="M107.416,78.92c0,0-5.017,6.922-10.363,6.922c-4.459,0-7.646-12.118-7.646-1.309
				c0,1.648,0.168,3.289,0.556,4.881c4.722-1.195,10.757-2.555,17.815-2.555c8.056,0,11.45,1.629,19.435,3.061
				c-0.528-4.736-2.823-11.999-5.413-15.994C112.209,97.592,116.002,78.92,107.416,78.92z"/>
		</g>
		<ellipse fill="#FFE0A8" cx="85.686" cy="40.578" rx="11.073" ry="7.297"/>
		<ellipse fill="#FFE0A8" cx="111.566" cy="36.504" rx="15.731" ry="10.678"/>
	</g>
	<ellipse cx="89.838" cy="38.987" rx="3.221" ry="2.153"/>
	<ellipse cx="109.464" cy="36.904" rx="3.435" ry="2.285"/>
</g>
</svg>
