<?xml version="1.0" encoding="utf-8"?>
<!-- Generator: Adobe Illustrator 16.0.3, SVG Export Plug-In . SVG Version: 6.00 Build 0)  -->
<!DOCTYPE svg PUBLIC "-//W3C//DTD SVG 1.1//EN" "http://www.w3.org/Graphics/SVG/1.1/DTD/svg11.dtd">
<svg version="1.1" id="Layer_1" xmlns="http://www.w3.org/2000/svg" xmlns:xlink="http://www.w3.org/1999/xlink" x="0px" y="0px"
	 width="150px" height="150px" viewBox="0 0 150 150" enable-background="new 0 0 150 150" xml:space="preserve">
<g>
	<path fill="#989C34" d="M91.27,96.891c0,5.566,0.924,9.984,0.924,12.898c0,6.168-6.021,11.014-6.021,12.957
		c0,0.58,15.145,2.016,17.966,11.186c1.619,0,3.391,0,5.425,0c3.979,0,9.515,0,13.521,0c3.392,0,14.516-1.623,14.516-4.033
		c0-6.582-9.943-11.531-13.721-11.73c-0.081-0.004,3.764-11.23,3.977-20.084c0.079-3.248-0.353-6.959-1.645-10.037
		c-4.235,2.707-9.776,4.537-17.021,4.537C97.492,92.584,91.27,81.035,91.27,96.891z"/>
	<path fill="#407421" d="M109.191,92.584c-11.699,0-17.922-11.549-17.922,4.307c0,5.566,0.924,9.984,0.924,12.898
		c0,6.168-6.021,11.014-6.021,12.957c0,0.414,7.725,1.268,13.169,5.061c7.779-0.713,11.774-2.893,16.135-8.459
		c2.233-2.852,4.593-7.068,5.474-11.967c1.119-6.219,2.45-11.051,1.211-17.225c-1.804,0.758-3.781,1.371-5.967,1.789
		C114.056,92.354,111.73,92.584,109.191,92.584z"/>
	<path fill="#4A5500" d="M75.393,32.678c-6.622-0.575-10.263-2.823-11.905-8.645c-2.639-9.359,8.993-16.76,8.993-16.864
		c0-0.563-1.347-0.85-2.909-0.85c-6.214,0-16.638,7.316-16.638,20.947c0,12.871,9.313,21.438,15.476,21.438
		c5.267,0,10.764-2.649,10.764-8.758C79.173,35.233,77.65,34.375,75.393,32.678z"/>
	<path fill="#35641C" d="M60.033,52.695c-8.916,0-18.344,9.09-20.439,17.626c-0.002,0.005-0.002,0.009-0.002,0.014
		c0,0.09,0.22,0.148,0.476,0.148c0.024,0,7.661-5.497,14.816-5.497c0.787,0,1.562,0.076,2.313,0.209
		C57.877,60.988,58.816,56.78,60.033,52.695L60.033,52.695z"/>
	<path fill="#35641C" d="M55.978,76.258c-0.603-0.131-1.234-0.211-1.896-0.211c-15.955,0-19.374,18.281-20.24,20.99
		c5.267-3.949,7.106-8.691,17.4-8.691c1.756,0,3.329,0.377,4.696,0.975c-0.094-2.201-0.154-4.447-0.154-6.664
		C55.784,80.568,55.85,78.428,55.978,76.258z"/>
	<path fill="#35641C" d="M56.231,95.916c-7.259,0-9.182,3.359-10.515,10.027c1.586-1.299,3.386-2.566,5.339-2.566
		c1.047,0,3.487,0.838,5.961,2.395c-0.141-2.436-0.439-5.908-0.706-9.854C56.283,95.918,56.259,95.916,56.231,95.916z"/>
	<path fill="#D3C5A9" d="M136.94,64.235c-0.777-2.152-2.099-4.268-3.448-5.822c-0.638-0.736-1.281-1.351-1.873-1.776
		c-0.402-0.289-0.287,0.762-0.045,2.244c0.252,1.535,0.64,3.532,0.735,4.984c0.048,0.728-0.018,1.416-0.15,2.071
		C134.153,65.395,135.727,64.777,136.94,64.235z"/>
	<g>
		<path fill="#4A5500" d="M150,23.197c0-13.63-10.425-20.947-16.639-20.947c-1.563,0-2.908,0.287-2.908,0.85
			c0,0.104,11.632,7.505,8.991,16.865c-1.257,4.459-4.835,7.686-9.415,9.213c3.628,3.908,6.284,8.212,8.165,12.164
			C143.878,38.813,150,32.719,150,23.197z"/>
		<path fill="#BEC350" d="M131.619,56.637c0.592,0.426,1.235,1.04,1.873,1.776c2.181-0.572,4.298-1.259,6.296-2.087
			c0.915-0.38,1.534-0.57,2.207-0.896c0.11-0.464,0.09-0.855,0.09-1.253c0-1.835-1.083-6.943-3.891-12.836
			c-1.881-3.952-4.537-8.256-8.165-12.164c-6.582-7.091-16.354-12.876-30.479-12.876c-21.349,0-33.666,16.771-39.518,36.394
			c-1.217,4.085-2.156,8.293-2.837,12.5c-0.601,3.718-1.002,7.434-1.218,11.063c-0.128,2.17-0.194,4.311-0.194,6.398
			c0,2.217,0.06,4.463,0.154,6.664c0.097,2.277,0.23,4.504,0.373,6.598c0.267,3.945,0.565,7.418,0.706,9.854
			c0.051,0.896,0.082,1.652,0.082,2.24c0,13.641-13.499,21.688-23.692,21.688c-17.897,0-22.669-20.281-22.868-28.434
			c-0.163-6.707,2.983-18.957,8.551-18.957c5.668,0,4.175,8.002,4.175,9.256c2.784-0.119,4.899-4.027,3.778-9.256
			c-1.591-7.425-6.843-8.819-11.242-7.53C6.165,77.604,0,91.961,0,104.248c0,22.668,10.341,43.502,32.928,43.502
			c9.279,0,18.066-3.613,25.333-9.301c7.494,0.699,15.193,1.465,22.762,1.465c7.992,0,23.504,0.33,23.568-2.658
			c0.026-1.211-0.142-2.313-0.453-3.324c-0.806-2.621-2.62-4.607-4.797-6.125c-5.444-3.793-13.169-4.646-13.169-5.061
			c0-1.943,6.021-6.789,6.021-12.957c0-2.914-0.924-7.332-0.924-12.898c0-15.855,6.223-4.307,17.922-4.307
			c2.539,0,4.864-0.23,7.003-0.639c2.186-0.418,4.163-1.031,5.967-1.789c1.466-0.613,2.817-1.322,4.051-2.109
			c11.464-7.33,14.033-20.402,14.033-21.832c0-2.991,0.117-3.582-0.899-3.12c-0.56,0.255-1.35,0.669-2.405,1.14
			c-1.214,0.542-2.787,1.16-4.781,1.701c-4.803,1.306-12.062,2.16-22.695,0.422c-0.823-0.134-1.658-0.279-2.521-0.445
			c-1.146-0.222-2.187-0.492-3.123-0.788c-4.326-1.364-6.369-3.284-5.597-3.573c0.792-0.296,3.797-0.26,8.024-0.301
			c0.464-1.217,0.726-2.533,0.726-3.947c0-1.364,0.882,0.679,1.63,3.917c6.479-0.113,15.018-0.521,22.972-2.341
			C131.332,57.399,131.217,56.348,131.619,56.637z"/>
	</g>
	<path fill="#D3C5A9" d="M108.603,61.222c-0.748-3.237-1.63-5.281-1.63-3.917c0,1.415-0.262,2.73-0.726,3.947
		c-0.547,1.436-1.383,2.729-2.428,3.874c0.937,0.296,1.977,0.566,3.123,0.788c0.863,0.166,1.698,0.311,2.521,0.445
		C109.277,64.534,108.954,62.747,108.603,61.222z"/>
	<ellipse fill="#FFE0A8" cx="95.254" cy="38.107" rx="12.06" ry="10.597"/>
	<ellipse fill="#FFE0A8" cx="121.753" cy="39.034" rx="9.866" ry="9.67"/>
	<ellipse cx="102.211" cy="37.434" rx="3.247" ry="2.876"/>
	<ellipse cx="125" cy="37.434" rx="3.247" ry="2.876"/>
	<path fill="#939B45" d="M81.71,105.434c-0.11,0.002-0.221,0.004-0.329,0.004c-13.552,0-17.112-20.229-17.112-28.947
		c0-4.174,1.496-10.777,5.879-10.777c2.622,0,2.316,1.998,2.316,3.397c0,2.039-0.082,4.284-0.082,6.558
		c0,8.177,1.061,16.744,10.812,17.519c0.587,0.047,0.901,0.775,0.901,1.461c0,1.625-2.09,2.113-2.09,2.561
		c0,0.557,0.862,1.637,2.115,1.637c0.904,0,1.138-1.15,1.138,1.303C85.259,102.729,83.999,105.375,81.71,105.434z"/>
</g>
</svg>
