<?xml version="1.0" encoding="utf-8"?>
<!-- Generator: Adobe Illustrator 16.0.3, SVG Export Plug-In . SVG Version: 6.00 Build 0)  -->
<!DOCTYPE svg PUBLIC "-//W3C//DTD SVG 1.1//EN" "http://www.w3.org/Graphics/SVG/1.1/DTD/svg11.dtd">
<svg version="1.1" id="Layer_1" xmlns="http://www.w3.org/2000/svg" xmlns:xlink="http://www.w3.org/1999/xlink" x="0px" y="0px"
	 width="150px" height="150px" viewBox="0 0 150 150" enable-background="new 0 0 150 150" xml:space="preserve">
<g>
	<path fill="#989C34" d="M91.053,96.6c0,5.492,0.912,9.85,0.912,12.727c0,6.084-5.94,10.865-5.94,12.783
		c0,0.572,14.942,1.988,17.726,11.037c1.598,0,3.346,0,5.354,0c3.926,0,9.388,0,13.341,0c3.347,0,14.323-1.602,14.323-3.98
		c0-6.494-9.811-11.376-13.54-11.573c-0.079-0.004,3.716-11.079,3.925-19.816c0.078-3.203-0.348-6.865-1.624-9.902
		c-4.179,2.67-9.646,4.477-16.792,4.477C97.191,92.35,91.053,80.955,91.053,96.6z"/>
	<path fill="#407421" d="M108.736,92.35c-11.545,0-17.684-11.395-17.684,4.25c0,5.492,0.912,9.85,0.912,12.727
		c0,6.084-5.941,10.865-5.941,12.783c0,0.408,7.621,1.25,12.993,4.994c7.676-0.705,11.616-2.855,15.921-8.348
		c2.201-2.813,4.529-6.973,5.399-11.807c1.104-6.137,2.419-10.904,1.195-16.994c-1.78,0.746-3.73,1.352-5.888,1.764
		C113.535,92.123,111.24,92.35,108.736,92.35z"/>
	<path fill="#4A5500" d="M75.388,33.243c-6.534-0.567-10.126-2.786-11.747-8.53c-2.604-9.234,8.873-16.537,8.873-16.64
		c0-0.555-1.329-0.838-2.87-0.838c-6.131,0-16.416,7.218-16.416,20.668c0,12.699,9.189,21.152,15.27,21.152
		c5.196,0,10.621-2.614,10.621-8.641C79.118,35.763,77.615,34.917,75.388,33.243z"/>
	<path fill="#35641C" d="M60.232,52.993c-8.797,0-18.099,8.968-20.167,17.391c-0.002,0.005-0.002,0.009-0.002,0.014
		c0,0.088,0.217,0.146,0.47,0.146c0.024,0,7.559-5.424,14.619-5.424c0.776,0,1.541,0.075,2.282,0.206
		C58.105,61.174,59.032,57.023,60.232,52.993L60.232,52.993z"/>
	<path fill="#35641C" d="M56.232,76.24c-0.595-0.129-1.217-0.207-1.871-0.207c-15.743,0-19.116,18.037-19.971,20.711
		c5.197-3.896,7.012-8.576,17.168-8.576c1.732,0,3.285,0.371,4.633,0.961c-0.092-2.171-0.152-4.386-0.152-6.573
		C56.04,80.494,56.105,78.383,56.232,76.24z"/>
	<path fill="#35641C" d="M56.481,95.637c-7.162,0-9.059,3.314-10.375,9.895c1.564-1.281,3.341-2.533,5.268-2.533
		c1.033,0,3.44,0.828,5.882,2.363c-0.14-2.402-0.433-5.829-0.697-9.723C56.533,95.639,56.509,95.637,56.481,95.637z"/>
	<path fill="#D3C5A9" d="M136.113,64.378c-0.767-2.124-2.071-4.211-3.4-5.745c-0.631-0.726-1.266-1.333-1.85-1.751
		c-0.396-0.285-0.283,0.751-0.043,2.213c0.248,1.515,0.63,3.485,0.725,4.918c0.047,0.718-0.018,1.397-0.147,2.043
		C133.363,65.523,134.916,64.914,136.113,64.378z"/>
	<g>
		<path fill="#4A5500" d="M149,23.887c0-13.448-10.286-20.667-16.416-20.667c-1.544,0-2.871,0.283-2.871,0.839
			c0,0.102,11.478,7.404,8.871,16.639c-1.238,4.4-4.77,7.583-9.289,9.091c3.581,3.855,6.199,8.102,8.057,12.001
			C142.96,39.295,149,33.282,149,23.887z"/>
		<path fill="#BEC350" d="M130.863,56.882c0.584,0.42,1.219,1.026,1.85,1.751c2.151-0.564,4.239-1.242,6.212-2.059
			c0.901-0.375,1.513-0.563,2.178-0.884c0.108-0.458,0.088-0.843,0.088-1.237c0-1.811-1.069-6.85-3.839-12.664
			c-1.857-3.899-4.476-8.146-8.057-12.002c-6.494-6.997-16.136-12.705-30.073-12.705c-21.063,0-33.217,16.547-38.99,35.91
			c-1.201,4.03-2.127,8.182-2.799,12.333c-0.593,3.668-0.988,7.334-1.201,10.915c-0.127,2.143-0.192,4.254-0.192,6.314
			c0,2.188,0.06,4.402,0.152,6.574c0.096,2.248,0.227,4.443,0.368,6.51c0.264,3.893,0.557,7.32,0.697,9.723
			c0.05,0.885,0.08,1.631,0.08,2.211c0,13.459-13.318,21.399-23.375,21.399c-17.659,0-22.368-20.012-22.563-28.056
			c-0.161-6.619,2.943-18.705,8.437-18.705c5.593,0,4.12,7.895,4.12,9.133c2.747-0.117,4.833-3.974,3.728-9.133
			c-1.569-7.325-6.752-8.7-11.093-7.429C7.083,77.568,1,91.734,1,103.857c0,22.367,10.203,42.922,32.489,42.922
			c9.156,0,17.826-3.564,24.996-9.176c7.393,0.689,14.99,1.445,22.458,1.445c7.885,0,23.189,0.326,23.253-2.623
			c0.026-1.195-0.14-2.281-0.446-3.279c-0.795-2.586-2.586-4.546-4.733-6.043c-5.372-3.744-12.993-4.585-12.993-4.994
			c0-1.918,5.941-6.699,5.941-12.783c0-2.877-0.912-7.234-0.912-12.727c0-15.644,6.139-4.25,17.684-4.25
			c2.504,0,4.797-0.227,6.908-0.631c2.157-0.412,4.107-1.018,5.888-1.764c1.446-0.605,2.78-1.305,3.996-2.082
			c11.312-7.232,13.848-20.13,13.848-21.541c0-2.951,0.114-3.534-0.888-3.078c-0.552,0.251-1.332,0.659-2.373,1.124
			c-1.199,0.535-2.75,1.145-4.717,1.679c-4.738,1.289-11.902,2.131-22.393,0.416c-0.813-0.132-1.637-0.275-2.488-0.439
			c-1.13-0.219-2.157-0.485-3.082-0.777c-4.267-1.347-6.282-3.24-5.521-3.525c0.781-0.292,3.748-0.257,7.918-0.297
			c0.458-1.201,0.717-2.5,0.717-3.894c0-1.347,0.869,0.669,1.607,3.864c6.392-0.111,14.817-0.514,22.666-2.31
			C130.58,57.633,130.467,56.597,130.863,56.882z"/>
	</g>
	<path fill="#D3C5A9" d="M108.156,61.406c-0.738-3.194-1.609-5.211-1.609-3.864c0,1.396-0.258,2.693-0.716,3.894
		c-0.541,1.417-1.366,2.692-2.397,3.822c0.926,0.292,1.952,0.558,3.082,0.777c0.852,0.164,1.676,0.307,2.488,0.439
		C108.82,64.674,108.501,62.91,108.156,61.406z"/>
	<ellipse fill="#FFE0A8" cx="94.984" cy="38.599" rx="11.898" ry="10.456"/>
	<ellipse fill="#FFE0A8" cx="121.13" cy="39.514" rx="9.733" ry="9.541"/>
	<ellipse cx="101.848" cy="37.935" rx="3.204" ry="2.838"/>
	<ellipse cx="124.334" cy="37.935" rx="3.203" ry="2.838"/>
	<path fill="#939B45" d="M81.62,105.027c-0.108,0.002-0.218,0.004-0.325,0.004c-13.37,0-16.883-19.959-16.883-28.56
		c0-4.119,1.476-10.634,5.8-10.634c2.587,0,2.286,1.972,2.286,3.351c0,2.013-0.081,4.228-0.081,6.47
		c0,8.069,1.046,16.521,10.667,17.286c0.58,0.047,0.891,0.766,0.891,1.441c0,1.604-2.063,2.084-2.063,2.526
		c0,0.552,0.851,1.616,2.088,1.616c0.892,0,1.122-1.135,1.122,1.285C85.122,102.359,83.88,104.971,81.62,105.027z"/>
</g>
</svg>
