<?xml version="1.0" encoding="utf-8"?>
<!-- Generator: Adobe Illustrator 16.0.3, SVG Export Plug-In . SVG Version: 6.00 Build 0)  -->
<!DOCTYPE svg PUBLIC "-//W3C//DTD SVG 1.1//EN" "http://www.w3.org/Graphics/SVG/1.1/DTD/svg11.dtd">
<svg version="1.1" id="Layer_1" xmlns="http://www.w3.org/2000/svg" xmlns:xlink="http://www.w3.org/1999/xlink" x="0px" y="0px"
	 width="150px" height="150px" viewBox="0 0 150 150" enable-background="new 0 0 150 150" xml:space="preserve">
<g>
	<g>
		<path fill="#02826A" d="M148.019,22.474c-9.781,0-11.244,15.454-19.339,15.454c-2.51,0-5.28-1.074-8-1.909
			c0.155,2.207,0.157,4.361,0.157,6.232c0,2.564-0.474,6.048-1.199,10.135c2.904,1.241,6.731,1.464,10.354,1.464
			c9.462,0,17.754-3.055,17.754-13.073c0-3.085-0.516-6.313-0.516-9.438C147.231,22.669,151.76,22.474,148.019,22.474z"/>
		<path fill="#02826A" d="M29.633,30.473c-3.266,0.405-6.766,1.456-9.711,1.064c-8.023-1.066-7.439-16.578-17.135-17.866
			c-3.71-0.492,0.754,0.299-0.388,8.892c-0.411,3.099-1.347,6.23-1.753,9.29c-1.318,9.932,6.5,14.05,15.877,15.296
			c4.41,0.586,9.174,0.878,12.405-0.855c-0.034-1.168-0.052-2.359-0.052-3.577C28.875,37.988,29.043,33.882,29.633,30.473z"/>
		<path fill="#02C19D" d="M12.577,91.554c0,2.806,0.265,1.772,0.942,2.225c1.862,1.243,3.793,1.243,5.343,1.243
			c1.417,0,1.741-0.791,1.741-2.073c0-0.764-0.112-1.644-0.112-2.45c0-1.052,0.111-1.757,0.755-1.757
			c0.767,0,2.03,0.789,2.401,0.789c0,0,0.014-6.385,8.661-14.134c-0.45-3.045-0.958-6.139-1.445-9.357
			C25.699,70.923,12.577,78.934,12.577,91.554z"/>
		<path fill="#02C19D" d="M121.025,91.846c0.369,0,1.635-0.787,2.4-0.787c0.644,0,0.756,0.705,0.756,1.756
			c0,0.807-0.11,1.688-0.11,2.452c0,1.28,0.322,2.072,1.738,2.072c1.551,0,3.483,0,5.346-1.244c0.677-0.451,0.942,0.582,0.942-2.224
			c0-11.041-10.046-18.555-16.021-23.531c-0.602,3.027-1.197,6.134-1.742,9.261C121.012,86.472,121.025,91.846,121.025,91.846z"/>
		<path fill="#00EAC6" d="M120.68,36.019c-0.518-7.354-2.758-15.302-12.473-15.467c-4.573-0.078-10.936,5.501-25.38,5.501
			c-14.964,0-31.624-7.098-40.783-7.098c-7.864,0-11.135,4.103-12.414,11.519c-0.589,3.409-0.757,7.514-0.757,12.243
			c0,1.218,0.019,2.409,0.052,3.577c0.209,7.335,1.032,13.757,1.938,19.747c0.487,3.219,0.994,6.312,1.445,9.357
			c0.776,5.251,1.377,10.359,1.377,15.705c0,24.192,1.077,45.342,1.077,45.342h7.674c6.695-9.682,18.339-14.049,28.476-14.049
			c14.776,0,27.807,8.626,34.87,14.049h7.614c0,0,0.826-4.244-1.316-27.934c-0.766-8.453,0.482-18.778,2.254-28.91
			c0.545-3.127,1.14-6.234,1.742-9.261c1.307-6.564,2.64-12.751,3.563-17.954c0.725-4.086,1.199-7.57,1.199-10.135
			C120.839,40.378,120.835,38.226,120.68,36.019z"/>
	</g>
	<path fill="#02C19D" d="M75.611,48.518c0,6.854-5.724,12.412-12.786,12.412c-7.06,0-12.785-5.556-12.785-12.412
		c0-6.855,4.535-12.41,11.596-12.41C68.696,36.107,75.611,41.663,75.611,48.518z"/>
	<path fill="#02C19D" d="M104.817,48.518c0,7.061-5.913,12.785-13.206,12.785c-7.296,0-13.208-5.723-13.208-12.785
		c0-7.062,4.724-12.785,12.017-12.785C97.715,35.732,104.817,41.456,104.817,48.518z"/>
	<path fill="#FFE0A8" d="M73.685,47.604c0,5.426-4.787,9.826-10.692,9.826c-5.906,0-10.692-4.4-10.692-9.826
		c0-5.428,3.599-9.827,9.503-9.827C67.709,37.778,73.685,42.177,73.685,47.604z"/>
	<path fill="#FFE0A8" d="M81.449,48.05c0,6.006,4.728,10.874,10.561,10.874c5.831,0,10.559-4.868,10.559-10.874
		c0-6.005-5.917-10.875-11.749-10.875S81.449,42.043,81.449,48.05z"/>
	<ellipse cx="63.727" cy="46.594" rx="5.214" ry="4.828"/>
	<ellipse cx="94.166" cy="45.966" rx="5.213" ry="4.828"/>
	<g>
		<path fill="#070F1B" d="M103.162,107.918c-1.017-5.194-2.803-6.976-2.803-13.661c0-6.194,1.994-12.86,1.994-15.513
			c0-3.389-1.249-6.665-5.835-5.904c-0.246,0.042-0.5,0.093-0.762,0.15c-0.5,6.938-3,12.201-4.802,15.767
			c-7.186-16.38-10.817,0.31-10.817,0.31c-1.06,0.098-2.573-2.876-4.945-8.886c-5.131,6.979-4.558,8.035-7.338,9.195
			c0,0-2.944-5.897-5.719-9.502c-1.907,2.898-3.074,5.994-4.076,9.588c-1.738,6.247-5.726-7.214-8.032-15.871
			c-0.448-0.213-0.894-0.435-1.334-0.673c-0.436-0.235-0.81-0.649-1.314-0.772c-0.262-0.064-0.519-0.094-0.767-0.094
			c-1.861,0-4.42,1.704-4.42,3.477c0,0.037,1.745,5.191,1.745,9.874c0,7.726,1.558,11.468-2.77,21.278
			c-2.208,5.008,3.913,7.234,10.306,8.18c-0.128-1.644-0.214-3.292-0.214-4.937c0-18.232,3.771-2.934,9.478-0.854
			c1.896,0.692,4.939-6.533,5.573-7.644c12.866,24.563,8.113-14.834,17.539,9.583l5.581-10.159c0.022,0,0.043,0.012,0.06,0.037
			c2.912,4.204,5.106,8.951,5.367,13.669c2.649-0.125,4.547-0.255,5.141-0.381C102.931,113.558,103.618,110.242,103.162,107.918z"/>
		<path fill="#F9FFD5" d="M89.427,100.85l-5.582,10.159c-9.425-24.416-4.672,14.979-17.538-9.583
			c-0.634,1.11-3.677,8.337-5.573,7.644c-5.707-2.08-9.478-17.377-9.478,0.854c0,1.643,0.086,3.293,0.214,4.937
			c3.446,0.511,7.315,0.648,10.72,0.648c0,0,22.199-0.454,32.663-0.953c-0.263-4.718-2.457-9.464-5.368-13.67
			C89.47,100.861,89.45,100.85,89.427,100.85z"/>
		<path fill="#F9FFD5" d="M58.059,89.46c1.001-3.594,2.168-6.688,4.076-9.588c2.774,3.606,5.719,9.502,5.719,9.502
			c2.78-1.158,2.208-2.215,7.338-9.194c2.372,6.009,3.885,8.983,4.945,8.886c0,0,3.631-16.69,10.818-0.311
			c1.801-3.565,4.3-8.828,4.802-15.766c-4.581,1.002-11.407,4.332-24.891,4.332c-5.258,0-13.444-0.209-20.839-3.731
			C52.333,82.247,56.32,95.709,58.059,89.46z"/>
	</g>
</g>
</svg>
