<?xml version="1.0" encoding="utf-8"?>
<!-- Generator: Adobe Illustrator 16.0.3, SVG Export Plug-In . SVG Version: 6.00 Build 0)  -->
<!DOCTYPE svg PUBLIC "-//W3C//DTD SVG 1.1//EN" "http://www.w3.org/Graphics/SVG/1.1/DTD/svg11.dtd">
<svg version="1.1" id="Layer_1" xmlns="http://www.w3.org/2000/svg" xmlns:xlink="http://www.w3.org/1999/xlink" x="0px" y="0px"
	 width="150px" height="150px" viewBox="0 0 150 150" enable-background="new 0 0 150 150" xml:space="preserve">
<g>
	<g>
		<path fill="#02826A" d="M148.509,22.121c-9.847,0-11.319,15.557-19.469,15.557c-2.527,0-5.315-1.081-8.054-1.921
			c0.156,2.222,0.159,4.39,0.159,6.274c0,2.582-0.477,6.089-1.207,10.203c2.923,1.249,6.776,1.474,10.424,1.474
			c9.525,0,17.872-3.075,17.872-13.16c0-3.106-0.519-6.356-0.519-9.502C147.716,22.318,152.276,22.121,148.509,22.121z"/>
		<path fill="#02826A" d="M29.328,30.174c-3.287,0.408-6.811,1.465-9.776,1.071c-8.077-1.073-7.489-16.689-17.25-17.986
			c-3.735-0.496,0.759,0.301-0.391,8.951c-0.414,3.12-1.356,6.272-1.765,9.352C-1.181,41.56,6.689,45.706,16.13,46.961
			c4.44,0.59,9.235,0.884,12.488-0.861c-0.034-1.176-0.052-2.375-0.052-3.601C28.565,37.739,28.735,33.606,29.328,30.174z"/>
		<path fill="#02C19D" d="M12.158,91.665c0,2.824,0.267,1.784,0.949,2.24c1.875,1.251,3.819,1.251,5.379,1.251
			c1.427,0,1.753-0.796,1.753-2.088c0-0.768-0.113-1.654-0.113-2.467c0-1.058,0.112-1.768,0.76-1.768
			c0.772,0,2.044,0.795,2.417,0.795c0,0,0.014-6.428,8.719-14.229c-0.453-3.065-0.965-6.18-1.455-9.42
			C25.368,70.896,12.158,78.96,12.158,91.665z"/>
		<path fill="#02C19D" d="M121.334,91.959c0.372,0,1.646-0.793,2.417-0.793c0.648,0,0.761,0.71,0.761,1.768
			c0,0.812-0.112,1.699-0.112,2.468c0,1.29,0.325,2.087,1.751,2.087c1.561,0,3.506,0,5.381-1.253
			c0.682-0.454,0.948,0.586,0.948-2.238c0-11.115-10.113-18.68-16.128-23.689c-0.606,3.048-1.205,6.176-1.755,9.324
			C121.321,86.549,121.334,91.959,121.334,91.959z"/>
		<path fill="#00EAC6" d="M120.986,35.757c-0.521-7.403-2.776-15.405-12.557-15.571c-4.603-0.078-11.008,5.538-25.549,5.538
			c-15.065,0-31.836-7.145-41.057-7.145c-7.917,0-11.209,4.13-12.497,11.596c-0.593,3.432-0.762,7.564-0.762,12.325
			c0,1.226,0.019,2.425,0.052,3.601c0.211,7.385,1.039,13.849,1.951,19.88c0.49,3.24,1.001,6.354,1.455,9.42
			c0.781,5.287,1.386,10.429,1.386,15.811c0,24.354,1.084,45.645,1.084,45.645h7.726c6.74-9.746,18.462-14.142,28.667-14.142
			c14.875,0,27.993,8.684,35.104,14.142h7.666c0,0,0.831-4.272-1.326-28.121c-0.77-8.51,0.486-18.904,2.268-29.103
			c0.55-3.148,1.148-6.276,1.755-9.324c1.315-6.608,2.657-12.837,3.587-18.074c0.73-4.114,1.207-7.621,1.207-10.203
			C121.146,40.146,121.143,37.979,120.986,35.757z"/>
	</g>
	<path fill="#02C19D" d="M75.615,48.34c0,6.9-5.762,12.495-12.871,12.495c-7.107,0-12.871-5.594-12.871-12.495
		s4.565-12.494,11.674-12.494C68.654,35.846,75.615,41.439,75.615,48.34z"/>
	<path fill="#02C19D" d="M105.017,48.34c0,7.108-5.952,12.871-13.295,12.871c-7.344,0-13.296-5.762-13.296-12.871
		s4.755-12.871,12.098-12.871S105.017,41.231,105.017,48.34z"/>
	<path fill="#FFE0A8" d="M73.676,47.42c0,5.463-4.819,9.892-10.764,9.892c-5.945,0-10.764-4.429-10.764-9.892
		c0-5.464,3.623-9.893,9.567-9.893C67.66,37.528,73.676,41.957,73.676,47.42z"/>
	<path fill="#FFE0A8" d="M81.492,47.869c0,6.046,4.76,10.947,10.632,10.947c5.87,0,10.629-4.901,10.629-10.947
		c0-6.046-5.956-10.948-11.827-10.948C85.054,36.921,81.492,41.822,81.492,47.869z"/>
	<ellipse cx="63.651" cy="46.403" rx="5.249" ry="4.86"/>
	<ellipse cx="94.295" cy="45.771" rx="5.248" ry="4.86"/>
	<g>
		<path fill="#070F1B" d="M103.351,108.139c-1.023-5.229-2.821-7.023-2.821-13.753c0-6.235,2.007-12.946,2.007-15.617
			c0-3.411-1.257-6.709-5.874-5.944c-0.248,0.042-0.504,0.094-0.766,0.151c-0.505,6.985-3.021,12.283-4.834,15.873
			c-7.235-16.49-10.891,0.312-10.891,0.312c-1.067,0.098-2.59-2.896-4.978-8.945c-5.166,7.025-4.589,8.089-7.388,9.256
			c0,0-2.964-5.937-5.757-9.566c-1.92,2.918-3.095,6.035-4.103,9.652c-1.75,6.29-5.765-7.261-8.086-15.976
			c-0.451-0.215-0.9-0.438-1.344-0.678c-0.439-0.237-0.815-0.654-1.323-0.777c-0.264-0.065-0.522-0.095-0.772-0.095
			c-1.874,0-4.45,1.716-4.45,3.501c0,0.037,1.757,5.226,1.757,9.939c0,7.779,1.568,11.545-2.788,21.423
			c-2.223,5.041,3.939,7.282,10.375,8.234c-0.129-1.654-0.216-3.315-0.216-4.97c0-18.354,3.796-2.953,9.541-0.859
			c1.909,0.697,4.973-6.578,5.611-7.694c12.952,24.726,8.167-14.934,17.656,9.646l5.619-10.227c0.022,0,0.042,0.012,0.06,0.037
			c2.931,4.233,5.14,9.011,5.403,13.761c2.667-0.126,4.578-0.256,5.175-0.383C103.118,113.816,103.81,110.478,103.351,108.139z"/>
		<path fill="#F9FFD5" d="M89.524,101.023l-5.619,10.227c-9.489-24.579-4.704,15.08-17.656-9.646
			c-0.638,1.116-3.702,8.392-5.611,7.694c-5.745-2.094-9.541-17.494-9.541,0.859c0,1.654,0.087,3.315,0.216,4.97
			c3.469,0.513,7.364,0.653,10.792,0.653c0,0,22.348-0.458,32.881-0.96c-0.264-4.75-2.473-9.527-5.403-13.761
			C89.566,101.035,89.547,101.023,89.524,101.023z"/>
		<path fill="#F9FFD5" d="M57.945,89.557c1.008-3.617,2.183-6.734,4.103-9.652c2.793,3.63,5.757,9.566,5.757,9.566
			c2.799-1.167,2.223-2.23,7.388-9.256c2.388,6.049,3.911,9.043,4.978,8.945c0,0,3.655-16.802,10.891-0.312
			c1.813-3.59,4.329-8.888,4.834-15.873c-4.612,1.009-11.484,4.361-25.058,4.361c-5.293,0-13.535-0.211-20.979-3.756
			C52.181,82.296,56.195,95.847,57.945,89.557z"/>
	</g>
</g>
</svg>
