<?xml version="1.0" encoding="utf-8"?>
<!-- Generator: Adobe Illustrator 16.0.3, SVG Export Plug-In . SVG Version: 6.00 Build 0)  -->
<!DOCTYPE svg PUBLIC "-//W3C//DTD SVG 1.1//EN" "http://www.w3.org/Graphics/SVG/1.1/DTD/svg11.dtd">
<svg version="1.1" id="Layer_1" xmlns="http://www.w3.org/2000/svg" xmlns:xlink="http://www.w3.org/1999/xlink" x="0px" y="0px"
	 width="590px" height="150px" viewBox="0 0 590 150" enable-background="new 0 0 590 150" xml:space="preserve">
<g>
	<path fill="#231F20" d="M47.424,55.569c-3.854,15.309-6.852,30.296-12.953,50.314l-9.743-0.855
		c-4.709-18.629-6.744-31.795-11.133-50.637l-0.856-0.106c0.536,19.59,1.071,37.468,2.248,59.093l-14.131-1.285
		C0.428,98.177,0,86.294,0,74.518C0,63.276,0.428,52.25,1.82,39.94l20.126,1.605c3.211,11.562,5.459,23.444,7.921,37.791
		c4.389-14.239,7.708-27.942,10.599-42.394l20.232,1.819c0.322,12.419,0.857,24.194,0.857,37.896c0,12.526,0,25.693-0.964,37.576
		l-14.666-1.392c1.819-18.092,1.926-38.433,2.354-57.167L47.424,55.569z"/>
	<path fill="#231F20" d="M93.89,35.871c12.525,0,24.087,10.707,24.087,36.827c0,25.907-12.847,42.394-25.372,42.394
		c-12.74,0-24.515-10.6-24.515-36.826C68.09,52.358,80.402,35.871,93.89,35.871z M92.605,102.459
		c5.46,0,11.133-11.562,11.133-29.761c0-17.128-4.71-24.086-9.849-24.086c-5.995,0-11.562,11.562-11.562,29.654
		C82.328,95.394,87.253,102.459,92.605,102.459z"/>
	<path fill="#231F20" d="M126.009,113.271c-0.215-4.39-0.322-8.564-0.322-12.847c0-20.661,1.392-42.5,2.891-60.378l14.238,1.392
		c5.781,15.95,11.668,31.153,19.055,44.426c-0.321-17.343-0.749-35.435-1.499-50.957l13.382,1.178
		c0,15.415,0.107,32.437,0.107,49.779c0,8.029-0.428,19.376-0.856,26.442l-11.99-1.178c-6.959-15.095-14.452-32.438-22.589-46.997
		c0.107,15.846,0.107,32.545,0.107,50.53L126.009,113.271z"/>
	<path fill="#231F20" d="M210.798,64.669c0.856-3.211,1.391-6.102,1.391-8.35c0-5.566-3.104-8.563-6.637-8.563
		c-4.603,0-7.387,5.031-7.387,9.849c0,5.246,3.425,9.633,8.564,12.846c11.775,7.387,19.269,12.097,19.269,23.337
		c0,13.703-11.133,21.089-21.089,21.089c-13.596,0-20.768-13.594-24.836-22.802l10.384-5.031c2.89,7.708,8.028,15.309,14.023,15.309
		c2.998,0,6.959-1.819,6.959-6.744c0-5.459-5.032-9.42-10.064-12.847c-9.099-6.315-17.877-12.739-17.877-24.943
		c0-13.488,10.599-22.588,21.839-22.588c13.061,0,21.518,12.097,21.518,21.731c0,2.676-0.643,8.028-2.782,12.097L210.798,64.669z"/>
	<path fill="#231F20" d="M244.844,111.665c-0.643-11.347-1.071-23.873-1.071-35.969c0-8.779,0.107-13.703,0.643-26.443
		c-7.279,0.856-13.061,1.82-13.061,1.82L229,38.655c0,0,10.491-1.82,20.768-2.676c9.956-0.75,20.02-1.071,20.02-1.071l2.034,11.883
		c0,0-5.889,0.321-13.275,0.964c-0.428,10.276-0.643,17.984-0.643,27.941c0,12.846,0.215,25.156,0.429,37.146L244.844,111.665z"/>
	<path fill="#231F20" d="M316.785,109.204c-4.924,2.248-11.561,4.174-21.517,4.174l-16.486-1.499
		c-0.214-8.457-0.428-16.915-0.428-27.084c0-12.632,0.856-32.116,1.713-44.212c14.773-2.249,26.763-2.784,35.754-2.784v13.167
		c-7.063,0-15.093,0.214-22.479,0.75c-0.214,6.101-0.428,12.417-0.535,18.412c6.424-0.963,12.311-1.284,19.27-1.392l2.034,11.776
		c-6.208,0.106-15.309,0.964-21.518,1.605c0,7.493,0,12.846,0.106,18.521c8.351-0.643,16.167-2.034,22.267-3.211L316.785,109.204z"
		/>
	<path fill="#231F20" d="M325.244,112.414c0.964-17.771,1.393-35.541,1.393-53.312c0-6.316,0-12.632-0.107-18.949
		c7.708-3.64,16.699-5.565,24.515-5.565c11.774,0,22.159,7.707,22.159,22.908c0,9.635-8.349,18.093-17.877,24.302
		c6.743,8.457,13.596,17.771,19.912,26.869l-10.277,7.602c-6.424-9.635-14.881-20.875-24.194-33.187
		c-0.214,9.956-0.535,20.77-0.964,30.938L325.244,112.414z M341.09,75.802c10.704-5.031,19.056-13.488,19.056-18.841
		c0-6.958-4.391-9.849-9.102-9.849c-2.996,0-6.209,0.535-9.848,1.82C341.196,57.817,341.196,67.024,341.09,75.802z"/>
	<path fill="#25A9E0" d="M407.143,64.669c0.856-3.211,1.393-6.102,1.393-8.35c0-5.566-3.105-8.563-6.639-8.563
		c-4.602,0-7.387,5.031-7.387,9.849c0,5.246,3.427,9.633,8.565,12.846c11.776,7.387,19.271,12.097,19.271,23.337
		c0,13.703-11.135,21.089-21.091,21.089c-13.596,0-20.769-13.594-24.837-22.802l10.385-5.031c2.892,7.708,8.03,15.309,14.025,15.309
		c2.996,0,6.956-1.819,6.956-6.744c0-5.459-5.031-9.42-10.063-12.847c-9.098-6.315-17.877-12.739-17.877-24.943
		c0-13.488,10.599-22.588,21.839-22.588c13.06,0,21.517,12.097,21.517,21.731c0,2.676-0.642,8.028-2.782,12.097L407.143,64.669z"/>
	<path fill="#25A9E0" d="M478.016,35.015c-0.643,11.349-0.964,23.553-0.964,35.328c0,15.522,0.534,30.51,1.179,41.43l-13.703-1.178
		c-0.75-6.959-1.071-17.771-1.179-29.547l-15.737,0.964c0.215,10.384,0.536,20.555,0.964,30.938l-14.56-1.284
		c-0.749-14.344-1.177-28.583-1.177-42.714c0-10.598,0.213-21.196,0.857-31.581l14.13,1.285c-0.428,6.316-0.643,12.738-0.643,19.162
		c0,3.961,0.108,8.351,0.108,12.311l16.057-0.963c0-11.99,0.214-24.194,0.535-35.434L478.016,35.015z"/>
	<path fill="#25A9E0" d="M512.811,35.871c12.524,0,24.085,10.707,24.085,36.827c0,25.907-12.844,42.394-25.37,42.394
		c-12.739,0-24.516-10.6-24.516-36.826C487.01,52.358,499.32,35.871,512.811,35.871z M511.525,102.459
		c5.46,0,11.134-11.562,11.134-29.761c0-17.128-4.71-24.086-9.849-24.086c-5.995,0-11.563,11.562-11.563,29.654
		C501.247,95.394,506.172,102.459,511.525,102.459z"/>
	<path fill="#25A9E0" d="M546.535,113.271c-0.32-9.1-0.428-17.771-0.428-25.801c0-16.271,0.428-31.58,1.071-48.601
		c6.101-2.248,12.417-3.32,18.626-3.32c11.562,0,24.195,9.421,24.195,25.265c0,13.917-12.526,24.515-29.226,29.225
		c0,7.708,0.106,16.165,0.319,24.623L546.535,113.271z M560.774,77.837c8.991-2.891,14.559-9.528,14.559-17.022
		c0-7.921-4.926-12.739-9.528-12.739c-1.713,0-2.998,0.32-4.389,0.535C561.094,58.567,560.881,68.095,560.774,77.837z"/>
</g>
</svg>
