<?xml version="1.0" encoding="utf-8"?>
<!-- Generator: Adobe Illustrator 16.0.3, SVG Export Plug-In . SVG Version: 6.00 Build 0)  -->
<!DOCTYPE svg PUBLIC "-//W3C//DTD SVG 1.1//EN" "http://www.w3.org/Graphics/SVG/1.1/DTD/svg11.dtd">
<svg version="1.1" id="Layer_1" xmlns="http://www.w3.org/2000/svg" xmlns:xlink="http://www.w3.org/1999/xlink" x="0px" y="0px"
	 width="150px" height="150px" viewBox="0 0 150 150" enable-background="new 0 0 150 150" xml:space="preserve">
<g>
	<g>
		<path fill="#B20D04" d="M42.214,116.113c1.382,5.488,2.463,11.533,2.541,16.193c0.344,20.726-2.594,17.514,11.524,17.514
			c1.702,0,3.403,0.036,5.105,0.085c0.017,0,0.035,0,0.053,0c2.153,0,4.566-1.931,2.554-4.978c-1.294-1.959-5.239-2.701-6.508-2.701
			c-8.498,0-8.515,6.8-8.515-1.53c0-4.659,0.695-12.725,0.695-16.737c0-0.301-0.01-0.575-0.02-0.851
			C46.927,121.453,44.414,119.191,42.214,116.113z"/>
		<path fill="#B20D04" d="M105.701,119.998c1.668,4.457,2.201,9.249,2.201,14.1c0,16.995-4.772,12.654,9.347,12.654
			c1.701,0,3.403,0.036,5.104,0.085c0.019,0.002,0.036,0.002,0.055,0.002c2.152,0,4.564-1.932,2.553-4.978
			c-1.294-1.959-5.237-2.702-6.508-2.702c-8.499,0-8.637,6.299-7.66-1.959c0.734-6.213,1.808-15.563,1.808-19.575
			c0-2.036,0.229-4.189,0.517-6.183C111.187,114.997,108.731,117.802,105.701,119.998z"/>
		<path fill="#B20D04" d="M34.655,65.738C21.719,43.174,14.767,36.973,14.767,36.973s-0.183-1.835,0.417-6.423
			c0.476-3.633,0.508-5.426-1.478-5.551c-0.621-0.039-1.602,0.562-2.27,3.321c-1.117,4.617-0.245,4.353-3.542-0.753
			c-1.311-2.029-4.218-2.64-3.807,0.747c0.378,3.119,1.135,3.459,1.72,5.23c0.29,0.877-4.344-2.601-5.589-0.036
			c-1.139,2.347,2.484,4.352,3.776,5.067c2.232,1.235,4.811,2.601,4.811,2.601c4.954,5.435,17.675,25.077,24.558,37.894
			c-0.019-1.019-0.032-2.052-0.032-3.115C33.333,73.545,33.719,69.938,34.655,65.738z"/>
		<path fill="#B20D04" d="M149.761,22.837c-1.365-2.763-6.463,1.04-6.144,0.088c0.646-1.921,1.478-2.296,1.896-5.673
			c0.456-3.667-2.74-2.979-4.184-0.773c-3.629,5.552-2.67,5.83-3.894,0.847c-0.732-2.978-1.811-3.619-2.493-3.571
			c-2.182,0.153-2.147,2.092-1.629,6.017c0.656,4.957,0.455,6.943,0.455,6.943s-1.717,11.168-16.381,31.088
			c0.722,5.194,1.092,10.682,1.254,16.212c8.791-13.404,19.591-34.913,21.674-42.807c0,0,2.836-1.501,5.29-2.856
			C147.026,27.566,151.012,25.365,149.761,22.837z"/>
		<path fill="#E26B00" d="M106.107,35.158c0.736-1.144,1.347-2.489,2.597-3.978c1.995-2.374,1.678-15.041-0.954-18.709
			c0,8.102-5.699,10.298-11.581,9.818c-1.435-0.117-5.178-11.167-9.688-16.193c-1.193,5.98-3.872,12.393-8.611,12.393
			c-6.692,0-13.323-10.989-11.334-16.265c2.849-7.559-9.862,5.765-9.862,15.902c0,4.102-0.07,8.795,0.852,12.423
			c5.747-3.418,12.75-5.553,21.252-5.553C88.898,24.996,99.45,26.826,106.107,35.158z"/>
		<path fill="#D11100" d="M118.666,74.825c-0.007-0.271-0.017-0.54-0.024-0.811c-0.162-5.53-0.532-11.018-1.254-16.212
			c-0.206-1.49-0.437-2.96-0.705-4.395c-1.257-6.71-6-12.052-9.973-17.464c-0.196-0.268-0.397-0.529-0.603-0.785
			c-6.657-8.333-17.209-10.162-27.329-10.162c-8.502,0-15.505,2.134-21.252,5.553c-13.815,8.218-20.347,23.866-22.871,35.189
			c-0.937,4.2-1.323,7.807-1.323,10.216c0,1.063,0.013,2.096,0.032,3.115c0.343,18.414,3.753,29.915,8.85,37.044
			c2.2,3.078,4.713,5.34,7.429,6.995c5.742,3.5,12.387,4.283,18.888,4.283c17.013,0,29.115-1.555,37.17-7.394
			c3.03-2.196,5.485-5.001,7.416-8.556C117.42,103.513,119.102,91.848,118.666,74.825z"/>
	</g>
	<ellipse fill="#F9FFBD" cx="66.6" cy="51.72" rx="12.387" ry="10.899"/>
	<ellipse fill="#040200" cx="73.657" cy="50.976" rx="4.775" ry="3.979"/>
	<path fill="#F9FFBD" d="M106.665,44.153c-0.813-5.548-6.713-9.093-13.181-7.918c-6.469,1.175-11.054,6.625-10.242,12.173
		c0.812,5.548,6.713,9.093,13.182,7.918C102.892,55.151,107.477,49.701,106.665,44.153z"/>
	<ellipse fill="#040200" cx="100.171" cy="43.908" rx="4.388" ry="3.088"/>
	<g>
		<path fill="#5A0700" d="M104.899,93.621c-1.481-2.313-3.804-3.878-7.094-3.878c-6.985,0-14.049,4.14-17.844,4.14
			c-4.642,0-7.703-2.829-13.431-2.829c-5.451,0-11.555,2.321-15.891,6.521c6.399,6.235,15.919,9.097,26.638,9.097
			C89.981,106.671,99.792,102.598,104.899,93.621z"/>
	</g>
	<g>
		<path fill="#201000" d="M106.204,65.868c0,0-0.543,0.424-1.668,1.07c0.792,1.081,1.299,2.946,1.125,6.147
			c-0.155,2.847-1.098,11.266-4.996,11.828c-3.096,0.447-7.325-6.094-7.611-12.611c-0.233,4.026-1.597,13.569-8.001,12.67
			c-4.627-0.648-6.004-8.592-6.412-11.534c-0.058,0.003-0.113,0.007-0.171,0.011c0,0.121,0,0.239,0,0.382
			c0,6.352-4.409,13.015-7.958,13.015c-6.594,0-9.041-9.724-9.597-14.491c-8.641-1.881-15.562-5.109-17.134-4.408
			c-2.172,0.969-1.511,4.662-1.511,7.312c0,9.885,3.146,17.223,8.372,22.315c4.335-4.199,10.439-6.521,15.891-6.521
			c5.728,0,8.789,2.829,13.431,2.829c3.795,0,10.858-4.14,17.844-4.14c3.29,0,5.612,1.564,7.094,3.878
			c2.526-4.439,3.907-10.073,3.907-17.019C108.807,74.331,108.235,65.868,106.204,65.868z"/>
		<path fill="#F9FFBD" d="M70.511,86.846c3.55,0,7.958-6.663,7.958-13.015c0-0.144,0-0.262,0-0.382
			c-2.22,0.131-4.578,0.199-7.096,0.178c-3.604-0.03-7.156-0.553-10.459-1.272C61.47,77.122,63.917,86.846,70.511,86.846z"/>
		<path fill="#F9FFBD" d="M93.039,71.314c-3.857,0.965-8.631,1.771-14.398,2.123c0.408,2.942,1.785,10.886,6.412,11.534
			c6.404,0.899,7.768-8.644,8.001-12.67c-0.011-0.231-0.017-0.462-0.017-0.692C93.037,71.496,93.038,71.409,93.039,71.314z"/>
		<path fill="#F9FFBD" d="M93.054,72.302c0.286,6.518,4.516,13.059,7.611,12.611c3.898-0.562,4.841-8.981,4.996-11.828
			c0.174-3.201-0.333-5.066-1.125-6.147c-1.949,1.12-5.667,2.913-11.443,4.363C93.088,71.574,93.075,71.909,93.054,72.302z"/>
		<path fill="#F9FFBD" d="M93.039,71.314c-0.001,0.094-0.002,0.181-0.002,0.295c0,0.23,0.006,0.461,0.017,0.692
			c0.021-0.393,0.034-0.728,0.039-1C93.075,71.306,93.057,71.31,93.039,71.314z"/>
	</g>
</g>
</svg>
