<?xml version="1.0" encoding="utf-8"?>
<!-- Generator: Adobe Illustrator 16.0.3, SVG Export Plug-In . SVG Version: 6.00 Build 0)  -->
<!DOCTYPE svg PUBLIC "-//W3C//DTD SVG 1.1//EN" "http://www.w3.org/Graphics/SVG/1.1/DTD/svg11.dtd">
<svg version="1.1" id="Layer_1" xmlns="http://www.w3.org/2000/svg" xmlns:xlink="http://www.w3.org/1999/xlink" x="0px" y="0px"
	 width="150px" height="150px" viewBox="0 0 150 150" enable-background="new 0 0 150 150" xml:space="preserve">
<g>
	<ellipse fill="#144559" cx="75.602" cy="143.245" rx="3.029" ry="2.673"/>
	<g>
		<path fill="#19607C" d="M123.101,112.815c-1.87-1.272-2.465-1.95-2.465-1.95s-5.107-28.879-11.692-34.482
			c2.778,6.125,4.893,12.97,5.475,20.996c1.571,5.949,2.209,11.329,2.515,14.488c0,0-0.459,1.486-0.833,2.787
			c-0.219,0.754-0.832,2.867,0.433,3.187c1.376,0.347,1.833-2.659,2.043-2.253c0.422,0.821,0.267,1.236,1.249,2.415
			c1.065,1.284,1.915-0.085,1.664-1.282c-0.621-3.006-1.037-2.744,1.033-1.666c1.24,0.643,1.817,0.447,2.031,0.188
			C125.238,114.404,124.582,113.824,123.101,112.815z"/>
		<path fill="#19607C" d="M50.862,111.936c0,0-0.349,0.832-1.725,2.627c-1.088,1.424-1.53,2.18-0.617,2.76
			c0.286,0.182,0.895,0.186,1.869-0.816c1.626-1.672,1.15-1.791,1.504,1.258c0.141,1.213,1.378,2.244,1.987,0.688
			c0.559-1.431,0.282-1.773,0.424-2.687c0.07-0.451,1.449,2.256,2.651,1.496c1.098-0.701-0.148-2.515-0.594-3.162
			c-0.767-1.117-1.669-2.382-1.669-2.382c-0.625-2.745-1.557-7.241-2.027-12.51c-1.203-2.444-2.432-4.905-3.582-7.46
			C49.356,101.638,50.862,111.936,50.862,111.936z"/>
		<path fill="#1E719B" d="M114.418,97.381c-0.582-8.028-2.693-14.873-5.475-20.994c-7.402-16.31-19.457-27.526-19.457-42.607
			c0-11.793,7.029-17.686,15.86-17.686c4.514,0,6.714,3.51,7.216,6.211C112.366,14.49,107.401,1,91.42,1
			C47.196,1,57.649,36.68,38.364,36.68c-5.394,0-10.852,3.78-13.19,8.6c2.363-0.372,4.951-1.197,7.352-1.197
			c9.069,0,11.173,12.959,11.173,22.41c0,0.734-0.003,1.467-0.003,2.2c0,9.225,2.424,16.464,5.388,23.056
			c1.15,2.555,2.38,5.016,3.583,7.461c3.711,7.51,7.162,14.834,7.162,24.24c0,9.188-1.657,12.764-11.633,12.764
			c-6.768,0,16.746,12.514,28.98,12.775c35.402,0.762,37.226-36.256,37.399-46.029C114.613,101.031,114.55,99.181,114.418,97.381z"
			/>
	</g>
	<path fill="#F9FFD5" d="M99.671,72.747c0,7.795-7.161,14.11-15.996,14.11c-8.837,0-15.999-6.313-15.999-14.11
		c0-7.792,7.065-14.706,15.902-14.706C92.414,58.042,99.671,64.955,99.671,72.747z"/>
	<ellipse cx="74.709" cy="72.582" rx="5.166" ry="4.545"/>
	<path fill="#144E5B" d="M100.557,67.197c-4.461-8.882-11.025-12.881-20.76-10.875c-6.756,1.393-12.917,6.566-13.91,14.714
		L100.557,67.197z"/>
	<path fill="#002920" d="M83.624,92.82c0.638-0.082,1.286-0.164,1.949-0.252c-0.315-0.211-0.69-0.346-1.175-0.346
		C84.074,92.223,83.832,92.457,83.624,92.82z"/>
	<path fill="#002920" d="M104.109,89.547c-0.198,0.013-0.818,0.074-1.758,0.168c-0.039,0.094-0.082,0.184-0.115,0.271
		C103.85,89.693,104.645,89.517,104.109,89.547z"/>
	<path fill="#002920" d="M92.888,91.295c-0.022,0.075-0.049,0.158-0.078,0.248c0.776-0.123,1.54-0.24,2.282-0.357
		c-0.289-0.153-0.605-0.242-0.955-0.242C93.874,90.939,92.93,91.161,92.888,91.295z"/>
	<path fill="#002920" d="M67.938,94.236c0.02,0.004,0.636-0.046,1.586-0.124c0.011-0.149,0.021-0.302,0.032-0.451
		C67.904,93.946,67.196,94.154,67.938,94.236z"/>
	<path fill="#F9FFD5" d="M69.555,93.661c6.335-1.093,26.595-3.317,32.796-3.946"/>
	<path fill="#F9FFD5" d="M69.555,93.661c-0.011,0.149-0.021,0.302-0.032,0.451c-0.03,0.419-0.054,0.806-0.054,1.005
		c0,2.456,1.073,4.322,1.606,4.322c0.043,0,3.256-5.648,5.238-5.648c2.517,0,2.854,3.947,4.542,3.742
		c1.754-0.209,2.001-3.379,2.769-4.713c0.208-0.363,0.45-0.597,0.772-0.597c0.482,0,0.859,0.135,1.175,0.347
		c1.55,1.045,1.485,4.15,3.484,4.52c1.673,0.31,3.203-3.857,3.752-5.547c0.029-0.089,0.054-0.172,0.078-0.248
		c0.042-0.133,0.986-0.351,1.251-0.351c0.349,0,0.666,0.089,0.955,0.243c1.918,1.038,2.481,5.006,2.481,5.006
		c3.292-1.162,3.673-3.824,4.663-6.203c0.033-0.09,0.076-0.181,0.115-0.272C96.152,90.344,75.891,92.568,69.555,93.661z"/>
	<circle fill="#2B92BA" cx="66.69" cy="137.899" r="4.276"/>
	<ellipse fill="#18596D" cx="85.047" cy="134.247" rx="3.207" ry="2.94"/>
	<ellipse fill="#144559" cx="81.747" cy="119.812" rx="1.517" ry="1.339"/>
	<ellipse fill="#2B92BA" cx="98.412" cy="122.93" rx="2.137" ry="1.961"/>
	<ellipse fill="#18596D" cx="70.341" cy="110.099" rx="1.516" ry="1.25"/>
</g>
</svg>
