<?xml version="1.0" encoding="utf-8"?>
<!-- Generator: Adobe Illustrator 16.0.3, SVG Export Plug-In . SVG Version: 6.00 Build 0)  -->
<!DOCTYPE svg PUBLIC "-//W3C//DTD SVG 1.1//EN" "http://www.w3.org/Graphics/SVG/1.1/DTD/svg11.dtd">
<svg version="1.1" id="Layer_1" xmlns="http://www.w3.org/2000/svg" xmlns:xlink="http://www.w3.org/1999/xlink" x="0px" y="0px"
	 width="150px" height="150px" viewBox="0 0 150 150" enable-background="new 0 0 150 150" xml:space="preserve">
<g>
	<g>
		<path fill="#B20D04" d="M42.652,115.564c1.364,5.416,2.43,11.38,2.507,15.978c0.339,20.448-2.56,17.279,11.37,17.279
			c1.679,0,3.357,0.035,5.037,0.084c0.017,0,0.034,0,0.052,0c2.125,0,4.505-1.904,2.52-4.91c-1.277-1.935-5.169-2.666-6.421-2.666
			c-8.384,0-8.402,6.709-8.402-1.511c0-4.597,0.687-12.556,0.687-16.512c0-0.297-0.01-0.567-0.02-0.84
			C47.301,120.834,44.823,118.602,42.652,115.564z"/>
		<path fill="#B20D04" d="M105.291,119.398c1.646,4.396,2.172,9.125,2.172,13.91c0,16.769-4.708,12.485,9.224,12.485
			c1.678,0,3.356,0.036,5.036,0.085c0.019,0.001,0.033,0.001,0.053,0.001c2.125,0,4.503-1.905,2.52-4.911
			c-1.276-1.933-5.166-2.666-6.422-2.666c-8.386,0-8.521,6.215-7.557-1.934c0.725-6.13,1.783-15.354,1.783-19.313
			c0-2.009,0.227-4.133,0.511-6.102C110.705,114.464,108.281,117.231,105.291,119.398z"/>
		<path fill="#B20D04" d="M35.193,65.861C22.43,43.599,15.571,37.48,15.571,37.48s-0.181-1.811,0.412-6.337
			c0.469-3.584,0.501-5.354-1.458-5.477c-0.613-0.039-1.581,0.554-2.24,3.276c-1.103,4.556-0.242,4.295-3.495-0.742
			c-1.293-2.002-4.162-2.605-3.756,0.737c0.373,3.078,1.121,3.413,1.698,5.16c0.286,0.865-4.287-2.566-5.515-0.035
			c-1.123,2.315,2.451,4.293,3.726,4.999c2.202,1.219,4.747,2.566,4.747,2.566c4.887,5.363,17.439,24.742,24.23,37.388
			c-0.019-1.006-0.031-2.025-0.031-3.074C33.889,73.564,34.271,70.005,35.193,65.861z"/>
		<path fill="#B20D04" d="M148.765,23.533c-1.348-2.726-6.378,1.026-6.063,0.087c0.638-1.896,1.458-2.266,1.872-5.597
			c0.448-3.618-2.705-2.939-4.13-0.763c-3.58,5.478-2.635,5.752-3.841,0.836c-0.723-2.938-1.788-3.571-2.461-3.524
			c-2.152,0.151-2.119,2.065-1.607,5.937c0.646,4.891,0.449,6.85,0.449,6.85s-1.694,11.02-16.161,30.674
			c0.713,5.125,1.076,10.539,1.236,15.995c8.673-13.226,19.329-34.447,21.384-42.235c0,0,2.799-1.481,5.221-2.818
			C146.063,28.199,149.997,26.028,148.765,23.533z"/>
		<path fill="#E26B00" d="M105.693,35.69c0.726-1.128,1.327-2.456,2.562-3.925c1.968-2.342,1.654-14.84-0.942-18.459
			c0,7.994-5.623,10.16-11.427,9.687c-1.415-0.116-5.107-11.019-9.558-15.977c-1.177,5.9-3.82,12.228-8.497,12.228
			c-6.602,0-13.145-10.843-11.182-16.048c2.811-7.458-9.731,5.688-9.731,15.69c0,4.047-0.069,8.677,0.841,12.257
			c5.67-3.372,12.58-5.479,20.967-5.479C88.713,25.664,99.124,27.469,105.693,35.69z"/>
		<path fill="#D11100" d="M118.084,74.827c-0.007-0.267-0.018-0.532-0.023-0.8c-0.16-5.456-0.525-10.871-1.236-15.996
			c-0.205-1.47-0.432-2.921-0.697-4.336c-1.24-6.621-5.92-11.892-9.84-17.231c-0.193-0.264-0.393-0.521-0.594-0.774
			c-6.569-8.222-16.98-10.026-26.967-10.026c-8.387,0-15.297,2.105-20.967,5.479c-13.631,8.109-20.076,23.547-22.566,34.719
			c-0.924,4.145-1.305,7.704-1.305,10.08c0,1.05,0.013,2.068,0.031,3.073c0.339,18.169,3.703,29.518,8.732,36.551
			c2.171,3.037,4.649,5.27,7.329,6.902c5.666,3.453,12.222,4.224,18.636,4.224c16.786,0,28.727-1.532,36.674-7.293
			c2.99-2.167,5.412-4.935,7.318-8.442C116.854,103.133,118.514,91.623,118.084,74.827z"/>
	</g>
	<ellipse fill="#F9FFBD" cx="66.712" cy="52.031" rx="12.221" ry="10.753"/>
	<ellipse fill="#040200" cx="73.675" cy="51.297" rx="4.712" ry="3.926"/>
	<path fill="#F9FFBD" d="M106.243,44.564c-0.804-5.474-6.623-8.972-13.005-7.813c-6.383,1.16-10.908,6.537-10.105,12.011
		c0.801,5.473,6.623,8.971,13.006,7.812C102.521,55.416,107.043,50.038,106.243,44.564z"/>
	<ellipse fill="#040200" cx="99.835" cy="44.323" rx="4.329" ry="3.047"/>
	<g>
		<path fill="#5A0700" d="M104.5,93.373c-1.461-2.281-3.752-3.827-7-3.827c-6.891,0-13.861,4.085-17.605,4.085
			c-4.58,0-7.601-2.791-13.251-2.791c-5.378,0-11.401,2.291-15.679,6.435c6.313,6.151,15.706,8.976,26.282,8.976
			C89.781,106.249,99.462,102.23,104.5,93.373z"/>
	</g>
	<g>
		<path fill="#201000" d="M105.788,65.99c0,0-0.535,0.418-1.646,1.055c0.782,1.066,1.281,2.907,1.111,6.065
			c-0.153,2.81-1.085,11.116-4.93,11.67c-3.056,0.44-7.228-6.013-7.509-12.442c-0.232,3.973-1.576,13.389-7.896,12.502
			c-4.564-0.641-5.924-8.478-6.326-11.381c-0.056,0.003-0.111,0.007-0.168,0.011c0,0.12,0,0.236,0,0.377
			c0,6.269-4.35,12.841-7.852,12.841c-6.506,0-8.92-9.593-9.469-14.297c-8.526-1.855-15.354-5.041-16.905-4.349
			c-2.143,0.956-1.49,4.6-1.49,7.214c0,9.755,3.104,16.995,8.26,22.019c4.276-4.143,10.299-6.436,15.679-6.436
			c5.651,0,8.671,2.792,13.251,2.792c3.744,0,10.714-4.085,17.606-4.085c3.246,0,5.537,1.545,7,3.827
			c2.492-4.38,3.854-9.938,3.854-16.792C108.355,74.34,107.791,65.99,105.788,65.99z"/>
		<path fill="#F9FFBD" d="M70.571,86.688c3.503,0,7.851-6.572,7.851-12.841c0-0.142,0-0.258,0-0.377
			c-2.19,0.129-4.516,0.196-7,0.176c-3.556-0.03-7.062-0.546-10.32-1.255C61.651,77.095,64.064,86.688,70.571,86.688z"/>
		<path fill="#F9FFBD" d="M92.799,71.363c-3.807,0.952-8.516,1.748-14.207,2.095c0.402,2.904,1.762,10.741,6.326,11.38
			c6.32,0.888,7.664-8.528,7.896-12.501c-0.012-0.228-0.018-0.456-0.018-0.683C92.797,71.543,92.798,71.457,92.799,71.363z"/>
		<path fill="#F9FFBD" d="M92.814,72.338c0.281,6.432,4.455,12.885,7.509,12.442c3.845-0.554,4.776-8.86,4.93-11.67
			c0.17-3.158-0.329-4.999-1.111-6.065c-1.922,1.105-5.591,2.874-11.291,4.305C92.848,71.62,92.835,71.95,92.814,72.338z"/>
		<path fill="#F9FFBD" d="M92.799,71.363c-0.001,0.093-0.002,0.179-0.002,0.291c0,0.227,0.006,0.455,0.018,0.683
			c0.021-0.388,0.033-0.718,0.036-0.987C92.835,71.355,92.816,71.359,92.799,71.363z"/>
	</g>
</g>
</svg>
