<?xml version="1.0" encoding="utf-8"?>
<!-- Generator: Adobe Illustrator 16.0.3, SVG Export Plug-In . SVG Version: 6.00 Build 0)  -->
<!DOCTYPE svg PUBLIC "-//W3C//DTD SVG 1.1//EN" "http://www.w3.org/Graphics/SVG/1.1/DTD/svg11.dtd">
<svg version="1.1" id="Layer_1" xmlns="http://www.w3.org/2000/svg" xmlns:xlink="http://www.w3.org/1999/xlink" x="0px" y="0px"
	 width="150px" height="150px" viewBox="0 0 150 150" enable-background="new 0 0 150 150" xml:space="preserve">
<g>
	<ellipse fill="#144559" cx="75.609" cy="144.168" rx="3.071" ry="2.71"/>
	<g>
		<path fill="#19607C" d="M123.751,113.328c-1.896-1.291-2.498-1.979-2.498-1.979s-5.179-29.269-11.85-34.944
			c2.816,6.204,4.961,13.14,5.549,21.277c1.591,6.03,2.238,11.482,2.547,14.683c0,0-0.465,1.505-0.845,2.824
			c-0.221,0.765-0.842,2.907,0.439,3.229c1.397,0.353,1.859-2.694,2.07-2.282c0.428,0.83,0.27,1.251,1.266,2.448
			c1.08,1.3,1.941-0.086,1.69-1.298c-0.632-3.048-1.054-2.781,1.046-1.69c1.255,0.651,1.84,0.453,2.057,0.188
			C125.917,114.937,125.252,114.35,123.751,113.328z"/>
		<path fill="#19607C" d="M50.536,112.433c0,0-0.354,0.842-1.748,2.665c-1.103,1.442-1.55,2.209-0.624,2.796
			c0.29,0.183,0.907,0.187,1.893-0.827c1.649-1.696,1.166-1.816,1.525,1.275c0.143,1.229,1.397,2.272,2.014,0.698
			c0.568-1.45,0.286-1.8,0.43-2.723c0.071-0.457,1.468,2.289,2.685,1.514c1.113-0.709-0.15-2.547-0.601-3.203
			c-0.778-1.132-1.692-2.414-1.692-2.414c-0.635-2.783-1.577-7.339-2.054-12.682c-1.221-2.472-2.466-4.968-3.631-7.558
			C49.01,101.996,50.536,112.433,50.536,112.433z"/>
		<path fill="#1E719B" d="M114.952,97.683c-0.588-8.138-2.732-15.073-5.549-21.277c-7.501-16.529-19.722-27.9-19.722-43.184
			c0-11.953,7.125-17.925,16.077-17.925c4.574,0,6.802,3.557,7.314,6.295C112.871,13.673,107.839,0,91.643,0
			C46.82,0,57.415,36.162,37.868,36.162c-5.466,0-10.998,3.831-13.366,8.717c2.393-0.377,5.015-1.215,7.449-1.215
			c9.192,0,11.325,13.135,11.325,22.713c0,0.744-0.003,1.488-0.003,2.231c0,9.348,2.456,16.684,5.461,23.367
			c1.165,2.59,2.411,5.086,3.631,7.558c3.761,7.613,7.259,15.037,7.259,24.571c0,9.313-1.679,12.934-11.79,12.934
			c-6.86,0,16.972,12.684,29.372,12.951c35.881,0.773,37.729-36.747,37.905-46.654C115.148,101.383,115.085,99.506,114.952,97.683z"
			/>
	</g>
	<path fill="#F9FFD5" d="M100.006,72.717c0,7.898-7.26,14.301-16.214,14.301c-8.956,0-16.215-6.402-16.215-14.301
		c0-7.898,7.159-14.906,16.114-14.906C92.646,57.811,100.006,64.819,100.006,72.717z"/>
	<ellipse cx="74.705" cy="72.551" rx="5.238" ry="4.606"/>
	<path fill="#144E5B" d="M100.903,67.092c-4.522-9.002-11.173-13.055-21.041-11.022c-6.848,1.41-13.091,6.653-14.098,14.911
		L100.903,67.092z"/>
	<path fill="#002920" d="M83.742,93.058c0.644-0.079,1.304-0.163,1.974-0.251c-0.32-0.215-0.703-0.352-1.191-0.352
		C84.197,92.455,83.951,92.693,83.742,93.058z"/>
	<path fill="#002920" d="M104.501,89.745c-0.199,0.013-0.827,0.073-1.78,0.169c-0.039,0.093-0.082,0.185-0.12,0.278
		C104.241,89.892,105.045,89.711,104.501,89.745z"/>
	<path fill="#002920" d="M93.13,91.516c-0.023,0.074-0.052,0.16-0.08,0.247c0.789-0.12,1.562-0.239,2.313-0.358
		c-0.292-0.157-0.613-0.249-0.969-0.249C94.131,91.155,93.172,91.38,93.13,91.516z"/>
	<path fill="#002920" d="M67.842,94.496c0.022,0.004,0.645-0.046,1.607-0.126c0.011-0.151,0.022-0.305,0.034-0.457
		C67.808,94.202,67.091,94.413,67.842,94.496z"/>
	<path fill="#F9FFD5" d="M69.483,93.913c6.419-1.107,26.952-3.362,33.238-3.999"/>
	<path fill="#F9FFD5" d="M69.483,93.913c-0.012,0.152-0.023,0.306-0.034,0.457c-0.03,0.425-0.054,0.818-0.054,1.018
		c0,2.49,1.087,4.382,1.629,4.382c0.042,0,3.299-5.725,5.307-5.725c2.549,0,2.893,3.999,4.606,3.793
		c1.778-0.214,2.025-3.425,2.805-4.78c0.209-0.364,0.455-0.603,0.782-0.603c0.488,0,0.871,0.137,1.191,0.352
		c1.571,1.058,1.504,4.205,3.53,4.58c1.698,0.314,3.246-3.91,3.804-5.624c0.028-0.087,0.057-0.173,0.08-0.247
		c0.042-0.136,1.001-0.36,1.265-0.36c0.355,0,0.677,0.092,0.969,0.249c1.943,1.051,2.515,5.076,2.515,5.076
		c3.337-1.178,3.723-3.88,4.723-6.288c0.038-0.094,0.081-0.186,0.12-0.278C96.435,90.551,75.902,92.806,69.483,93.913z"/>
	<circle fill="#2B92BA" cx="66.578" cy="138.75" r="4.335"/>
	<ellipse fill="#18596D" cx="85.182" cy="135.047" rx="3.251" ry="2.98"/>
	<ellipse fill="#144559" cx="81.84" cy="120.416" rx="1.535" ry="1.355"/>
	<ellipse fill="#2B92BA" cx="98.728" cy="123.577" rx="2.167" ry="1.987"/>
	<ellipse fill="#18596D" cx="70.28" cy="110.572" rx="1.536" ry="1.265"/>
</g>
</svg>
